<mxfile host="Electron" modified="2023-10-09T12:29:17.451Z" agent="Mozilla/5.0 (Windows NT 10.0; Win64; x64) AppleWebKit/537.36 (KHTML, like Gecko) draw.io/22.0.2 Chrome/114.0.5735.289 Electron/25.8.4 Safari/537.36" etag="tEN31qCTjUxIa6ovgawu" version="22.0.2" type="device">
  <diagram name="Page-1" id="2ca16b54-16f6-2749-3443-fa8db7711227">
    <mxGraphModel dx="1098" dy="820" grid="1" gridSize="10" guides="1" tooltips="1" connect="1" arrows="1" fold="1" page="1" pageScale="1" pageWidth="1100" pageHeight="850" background="none" math="0" shadow="0">
      <root>
        <mxCell id="0" />
        <mxCell id="1" parent="0" />
        <mxCell id="MAos26doQvQkLZr82pBG-3" value="" style="whiteSpace=wrap;html=1;aspect=fixed;align=right;" parent="1" vertex="1">
          <mxGeometry x="280" y="130" width="280" height="280" as="geometry" />
        </mxCell>
        <mxCell id="MAos26doQvQkLZr82pBG-2" value="" style="image;sketch=0;aspect=fixed;html=1;points=[];align=center;fontSize=12;image=img/lib/mscae/Kubernetes.svg;" parent="1" vertex="1">
          <mxGeometry x="510" y="60" width="50" height="48" as="geometry" />
        </mxCell>
        <mxCell id="MAos26doQvQkLZr82pBG-1" value="Redis Persistent Storage" style="image;sketch=0;aspect=fixed;html=1;points=[];align=center;fontSize=12;image=img/lib/mscae/Cache_Redis_Product.svg;" parent="1" vertex="1">
          <mxGeometry x="460" y="160" width="71.43" height="60" as="geometry" />
        </mxCell>
        <mxCell id="MAos26doQvQkLZr82pBG-5" value="Central Api Service" style="image;sketch=0;aspect=fixed;html=1;points=[];align=center;fontSize=12;image=img/lib/mscae/Container_Instances.svg;" parent="1" vertex="1">
          <mxGeometry x="463.21" y="301.1" width="65" height="65" as="geometry" />
        </mxCell>
        <mxCell id="MAos26doQvQkLZr82pBG-6" value="Graph Database&lt;br&gt;" style="image;sketch=0;aspect=fixed;html=1;points=[];align=center;fontSize=12;image=img/lib/mscae/Database_General.svg;" parent="1" vertex="1">
          <mxGeometry x="314.4" y="160" width="45.6" height="60" as="geometry" />
        </mxCell>
        <mxCell id="MAos26doQvQkLZr82pBG-7" value="Dashboard" style="image;sketch=0;aspect=fixed;html=1;points=[];align=center;fontSize=12;image=img/lib/mscae/CustomDomain.svg;" parent="1" vertex="1">
          <mxGeometry x="297.2" y="300" width="80" height="67.2" as="geometry" />
        </mxCell>
        <mxCell id="MAos26doQvQkLZr82pBG-8" value="&lt;font style=&quot;font-size: 24px;&quot;&gt;Central API&lt;/font&gt;&lt;hr&gt;" style="text;html=1;align=center;verticalAlign=middle;resizable=0;points=[];autosize=1;strokeColor=none;fillColor=none;" parent="1" vertex="1">
          <mxGeometry x="360" y="60" width="150" height="60" as="geometry" />
        </mxCell>
        <mxCell id="MAos26doQvQkLZr82pBG-9" value="&lt;font style=&quot;font-size: 18px;&quot;&gt;Network Applications&lt;/font&gt;" style="image;sketch=0;aspect=fixed;html=1;points=[];align=center;fontSize=12;image=img/lib/mscae/Kubernetes_Services.svg;" parent="1" vertex="1">
          <mxGeometry x="910" y="215" width="202.7" height="150" as="geometry" />
        </mxCell>
        <mxCell id="MAos26doQvQkLZr82pBG-10" value="" style="rounded=0;whiteSpace=wrap;html=1;" parent="1" vertex="1">
          <mxGeometry x="626" y="130" width="240" height="320" as="geometry" />
        </mxCell>
        <mxCell id="MAos26doQvQkLZr82pBG-11" value="&lt;font style=&quot;font-size: 24px;&quot;&gt;Middleware&lt;/font&gt;&lt;hr&gt;" style="text;html=1;align=center;verticalAlign=middle;resizable=0;points=[];autosize=1;strokeColor=none;fillColor=none;" parent="1" vertex="1">
          <mxGeometry x="626" y="60" width="150" height="60" as="geometry" />
        </mxCell>
        <mxCell id="MAos26doQvQkLZr82pBG-12" value="" style="image;sketch=0;aspect=fixed;html=1;points=[];align=center;fontSize=12;image=img/lib/mscae/Kubernetes.svg;" parent="1" vertex="1">
          <mxGeometry x="777.9200000000001" y="60" width="52.08" height="50" as="geometry" />
        </mxCell>
        <mxCell id="MAos26doQvQkLZr82pBG-13" value="" style="endArrow=classic;html=1;rounded=0;entryX=1;entryY=0.654;entryDx=0;entryDy=0;entryPerimeter=0;exitX=0.008;exitY=0.572;exitDx=0;exitDy=0;exitPerimeter=0;" parent="1" edge="1">
          <mxGeometry width="50" height="50" relative="1" as="geometry">
            <mxPoint x="627.9200000000001" y="319.99999999999994" as="sourcePoint" />
            <mxPoint x="560" y="320.07999999999987" as="targetPoint" />
          </mxGeometry>
        </mxCell>
        <mxCell id="MAos26doQvQkLZr82pBG-14" value="Autonomouns Robot" style="shape=image;verticalLabelPosition=bottom;labelBackgroundColor=default;verticalAlign=top;aspect=fixed;imageAspect=0;image=data:image/jpeg,/9j/4AAQSkZJRgABAQEAYABgAAD//gA7Q1JFQVRPUjogZ2QtanBlZyB2MS4wICh1c2luZyBJSkcgSlBFRyB2NjIpLCBxdWFsaXR5ID0gOTAK/9sAQwADAgIDAgIDAwMDBAMDBAUIBQUEBAUKBwcGCAwKDAwLCgsLDQ4SEA0OEQ4LCxAWEBETFBUVFQwPFxgWFBgSFBUU/9sAQwEDBAQFBAUJBQUJFA0LDRQUFBQUFBQUFBQUFBQUFBQUFBQUFBQUFBQUFBQUFBQUFBQUFBQUFBQUFBQUFBQUFBQU/8IAEQgDIAK8AwERAAIRAQMRAf/EAB0AAQABBQEBAQAAAAAAAAAAAAAEAQMFBgcCCAn/xAAbAQEBAQEBAQEBAAAAAAAAAAAAAQIDBAUGB//aAAwDAQACEAMQAAAB+qQAAAAAAAAAAAAAAAAAAAAAAAAAAAAAAAAAAAAAAAAAAAAAAAAAAAAAAAAAAAAAAAAAAAAAAAAAAAAAAAAAAAAAAAAAAAAAAAAAAAAAAAAAAAAAAAAAAAAAAAAAAAAAAAAAAAAAAAAAAAAAAAAAAAAAAAAAAAAAAAAAAAAAAAAAAAAAAAAAAAAAAAAAAAAAAAAAAAAAAAAAAAAAAAAAAAAAAAAAAAAAAAAAAAAAAAAAAAAAAAAAAAAAAAAAAAAAAAAAAAAAAAAAAAAAAAAAAAAAAAAAAAAAAAAAAAAAAAAAAAAAAAAAAAAAAAAAAAAAAAAAAAAAAAAAAAAAAAAAAAAAAAAAAAAAAAAAAAAAAAAAAAAAAAAAAAAAAAAAAAAAAAAAAAAAAAAAAAAAAAAAAAAAAAAAAAAAAAAAAAAAAAAAAAAAAAAAAAAAAAAAAAAAAAAAAAAAAAAAAAAAAAAAAAAAAAAAAAAAAAAAAAAAAAAAAAAAAAAAAAAAAAAAAAAAAAAAAAAAAAAAAAAAAAAAAAAAAAAAAAAAAAAAAAAAAAAAAAAAAAAAAAAAAAAAAAAAAAAAAAAAAAAAAAAAAAAAAAAAAAAAAAAAAAAAAAAAAAAAAAAAAAAAAAAAAAAAAAAAAAAAAAAAAAAAAAAAAAAAAAAAAAAAAAAAAAAAAAAAAAAAAAAAAAAAAAAAAAAAAAAAAAAAAAAAAAAAAAAAAAAAAAAAAAAAAAAAAAAAAAAAAAAAAAAAAAAAAAAAAAAAAAAAAAAAAAAAAAAAAAAAAAAAAAAAAAAAAAAAAAAAAAAAAAAAAAAAAAAAAAAAAAAAAAAAAAAAAAAAAAAAAAAAAAAAAAAAAAAAAAAAAAAAAAAAAAAAAAAAAAAAAAAAAAAAAAAAAAAAAAAAAAAAAAAAAAAAAAAAAAAAAAAAAAAAAAAAAAAAAAAAAAAAAAAAAAAAAAAAAAAAAAAAAAAAAAAAAAAAAAAAAAAAAAAAAAAAAAAAAAAAAAAAAAAAAAAAAAAAAAAAAAAAAAAAAAAAAAAAAAAAAAAAAAAAAAAAAAAAAAAAAAAAAAAAAAAAAAAAAAAAAAAAAAAAAAAAAAAAAAAAAAAAAAAAAAAAAAAAAAAAAAAAAAAAAAAAAAAAAAAAAAAAAAAAAAAAAAAAAAAAAAAAAAAAAAAAAAAAAAAAAAAAAAAAAAAAAAAAAAAAAAAAAAAAAAAAAAAAAAAAAAAAAAAAAAAAAAAAAAAAAAAAAAAAAAAAAAAAAAAAAAAAAAAAAAAAAAAAAAAAAAAAAAAAAAAAAAAAAAAAAAAAAAAAAAAAAAAAAAAAAAAAAAAAAAAAAAAAAAAAAAAAAAAAAAAAAAAAAAAAAAAAAAAAAAAAAAAAAAAAAAAAAAAAAAAAAAAAAAAAAAAAAAAAAAAAAAAAAAAAAAAAAAAAAAAAAAAAAAAAAAAAAAAAAAAAAAAAAAAAAAAAAAAasmmyeJqVqbTq0jTWJep1PHQAAAAAAAAAAAAAAAAAAAAAAAAAAAAAAAAAAAAAAAc83nnuWO4+iz0x2LdrzuhdOMjeO3cugAAAAAAAAAAAAAAAAAAAAAAAAAAAAAAAAAAAAAAA5F97x/Mf7r8fivyn3I/y/p9O93mhzno/0Oe8/U5/af8ANf0QAAAAAAAAAAAAAAAAAAAAAAAAAAAAAAAAAAAAAAA47+j8Xzx+y/H6j+X+9E+Z7+qfX8cHzTR/rcOh/S19o/y/9EAAAAAAAAAAAAAAAAAAAAAAAAAAAAAAAAAAAAAAAON/f8HBP1n5TRPhfdj/ADfZ1T6Hjg8Zov1uXRvdn7Q/mv6UAAAAAAAAAAAAAAAAAAAAAAAAAAAAAAAAAAAAAAAcwTTCt1l953GajTXPdcoeuf0hx7AAAAAAAAAAAAAAAAAAAAAAAAAAAAAAUOZ7z0nFuKAAAAAAAOI6nBOljEyzpN6Y7F5/08+1an2J5OoAAAAAAAAAAAAAAAAAAAAAAAAAAAAAAjHOt5kHQ8a9gAAAAAA4lqfPne4KPOs9SvbG5ulb8/QWfsPx9QAAAAAAAAAAAAAAAAAAAAAAAAAAAAAABrCfPfWdJOs8tWEx2p4Kiqx5soUPZbK1yNeG9bhStnU71xebpG+G93H1l5d0KrWPUeLJWbNaqAAAAAAAAAAAAAAAAAAAAAAAAAAAAWz5n6SCZU2Qy8mTXJGQSXHs9UKRQ5NpxTq16yldKvXE5a3rjvTP1B5ugFYFVi3MOzyeItHuWVLKlypdUAAAAAAAAAAAAAAAAAAAAAAAAD5Da1fduF2riSYmWSzIplYzaZgy5lUx1mv9M1JRclxlYbWLkdQ49bMlqrCXqSihQ8pSvUXKkGCGb0fOrqgAAAAAAAAAAAAAAAAAAAAAAAfH03gelrA821kovqz0e4uWSCUmRTLGVi1vOR3znam287lc69EqJUt+KrRLdeigKAoClCLXMmel897AoAAAAAAAAAAAAAAAAAAAAAAA+QJvAdNepPK1KFSgKFBCqlT2khnM6xsFzsR0DDZFvQBQCqAoCgKAFKVzK52HGugZ0AAAAAAAAAAAAAAAAAAAAAAB8hzevbvpaFChWPIKV6ipQUgeCxc4bWdwudtTOybHG8xnZQBSqAoAUKAFKVp1mEy63jV1QAAAAAAAAAAAAAAAAAAAAAPk7OtT6bulDyDzAoVKlQUAPJETT9Y9kk2GzdUz7M9Nyl3bNyhQoUqgBQFAUoUrEnNmeu895dQAAAAAAAAAAAAAAAAAAAABpMcFzrXbq3pZtAkcfo0mqa5WevhHooepKW0IppeufuW+voVes3FnaLM5M5BN8l22WUUKAFCgFUqgLZya56Dz1uM0AAAAAAAAAAAAAAAAAAAAANYw+OZutZTVtaol+f6svyfdl8foQ/R8nzrhA9nwLvP02e3g9Z7+bziaxpd51W/L7W4tUotNZl2bvM5zWc5Jlk32XOyzSKQyFWOshEKoaQiGuLTGr0/F69nQAAAAAAAAAAAAAAAAAAAAA+VeeuX3VLNh0sXXsynz/wBV7x28syuP0bk6ekid/m+bisuufS/IadcVbvnoqVhVyK20TzqT7ne2c7c7Bc4WWstsovksLFqBWNIKw4sUj7r4yZaAAAAAAAAAAAAAAAAAAAABoOHyM6eE9WZzeo4lrXvHa/y9l3He9z9XjXOd5fs3cdtT+z+A0+59NXoWWkAFKqej0tT1Z0TUwxaIZbLCxi0lo8ntPB6JkfeXKZa0AAAAAAAAAAAAAAAAAAAAAfJHO871qyTdri1Kr6k9HorFVqlc9omuOp6z7alRre8Y1LZVKnqqhapLXMZ1t+tYhnGIJMSlxFz6LZbr6g83f5q9PD2T4+++UmWgAAAAAAAAAAAAAAAAACwmuS4GsPZL1N+xYZyrOtINK01Hovy35ZEt6Lh7PcVKlk1TWPbUWzF2W0h1IiSCweS+ZiammwXeCuYDHo6/x7ebeCdOORPdWE+0fL6fjz1+a7GYj7+wuAAAAAAAAAAAAAAAAAHg5rc8q1dC1YZ6slZuxc9aRWudMfTtneuOh8JJpO7eWZLLmpBeyuV7j2WjVtZ8y4DeKlivCSpc5i3itt9ZhLtxyZi61+5hM+zt/HrjNXi++Xoqk0+wvP3+NvTwuJsmb9SZzgNMunUs6sWZKUAAAAAAAAAAAAAAD5Rs0na50S5L0trNu5tZcaY3ed0zra9Y7/lz3hv5921rpnBllZ0sxZEt2LhZTXNTDWRLLdWyplcshNTpZyyauazbNeTZHTAsRkqd449dV25PvlUEyPpHl2+bO3GhspnOmbSS+es7m6r0z9bcm4qAAAAAAAAAAAAABqsnyfrWexrVdMZ0zM3nOpNI1mI5dNq5dNOuefdM/dVzt3HXzbpt9TM3DYvLek9yRV18t2+o1fWdf3KxbrzF4z2dXEyC36vTXq5x9mDNtdMIxZSpv2N4PU1qwlT0eih5jJ2d/wCmYMtvlqkW9SbvPWsN2zZigAAAAAAAAAAACNl8WdX0H4/RkIjS/PvbnivXyzFmajLc9QOetWqPqad0zuKZ7DF3XY8Ni5Xhutcu64yEvbDfOGpaajZxDspc5zNtJrFun1WJEtLLFXa8pGqLG0ukGZJRfR6S3L5sLCS9LcrGWZHU2RcxZIsxkZTLr/PXP+k7xidQlAAAAAAAAAAAAFiPmTz9958/b3ZfssR83/Q82C3IlVllnuItmzRj60pO089zY7xJ8rVhOkS98yy2dYPrzi6Y0izWOrH3Ox8234uGXkvSbNw7e8zB9MwjD4Yzcypm86yObdKW3c3WvVx9LpzMRMznUOzJzWJ3npm89F1LpiTmXLXq31Z23M+ksUAAAAAAAAAAAAc9w515vTms3HplLZqco6Y5p7uWZs8ywDGx0rl0x0cq6c9Zs+iZcTx1tccX7ZVJzdv1Mr0zFzcXbsGs7VMzItYuqY6QyNrOqbmR5dd05bzZd8/TL+XpDSFpA3LG5ie+YHTHvOtO9XGfx3r3fljJM+u7S65jWpakbWfVb5pLk6Dw6ZmXXemdA6c/oXDs+aAAAAAAAAAAAB86mZ8PquJdSNNSqxMfNX0/Nn7J1vmNZ53XtSgTGG9add43H+fryL2cpUm9bzezrHLbJmpPS1nWOrHyxouQTO6zvnLWq6R8ddy8HoyHKwrI/TEvrjM9M8W6zTOsw9zc1M1c6nmzbMnne4S9hmMZjel8evPvbxzt1CTDzMCNtTq2d2Lj6vyAAAAAAAAAAAA5dnWo/P8AS3ZOUuS8Sbfk76Hmg9JfMgZzG58a7cal0zdjXTaT6Hw4tGK26Iu4eXruvn646uXerjrvp5zUyOs+kxy4qXeOW+gct8w05j155Tl0y2Lit4x3XP23M71KNWk+It60yrRSOjbZq50aXBZb/XduXTgEan1z1besUmHTGZnXOPTSumd6mPrSAAAAAAAAAAAAOa4uk/P9nlPVvuKamTzfnL3efFejNiWImPZj2bRNZ/N0fWe1yfUUZs+Osub9HcPJ36fw6VLBWXhnq4az6+e0axSq5tzlvR5cVqe9SWmClgS5yO7SfSdl4AxB8VVzXVslo2zlu5LrnXnum5TFy7fOLi/XQ7q3EzlrWtZx2s7en2thkAAAAAAAAAAAAccjS/B65uNSJZhIuZB84+7hiPRiJEIh2bdnUGTA6nUU+3MgIsfJq9o8HqpNXbPcl1I0vy19Hz4jpn2XKz/PWy46ZYtJy3txzsusS+z79mJqgART4A1dStzWd7tx3vXn6a5vHEvZ59wzrp+d8wkg9sxRG2Y1mJrG9OdnWPr3m3sAAAAAAAAAAAHiPlzyd89w7VrNJbLsfL/v82L65mXV1PWbiqx7MfU3Kz9COdA1LL5m59e1eP0S7INkwrZ5xvlvXnxz6Hn9S2C0RCEbZHY+XTELyLtx+x5OkwAAByA+LLq3Wx431zyd42s/P3s830Hx6bt5fT89evzRO2fMRkhko6Ry7bTrl9aXAAAAAAAAAAAAA4Zy3C8XpvEW2dGFj5q+p4/FtlLyys3webn0fVid1gAfM/l79L49BazbawTI2Y9PlT6fmyelqLS2Eyub1Hj30jWdF6cbdfY2Z1VAAAPJ8A53glw+5snPWXl1rWfo7j0wPDrwX3+Wm5OIEY9N959cBvH0JMfTIAAAAAAAAAAAAOD87pfHvuHDpfl8Ryjvy5V7uBcelCplc2sRt5/SfIAD5y8vbf8AjuDUnOqLaPcXF+Yff58F255ZZcs/GtQTA7zJi9Z36T6dgAAAD8/dX15vRtlmhdeczLoONxpcBnXMPX5r63jc+fSdneP1jUenL6Hy+pEAAAAAAAAAAAAA4Pm874d938/TSt54x7vNG0uFyW1LBubJE1PoOPsPIAafHBPP36t5usOBQoSNJB88evjovoxGLkbBnps/PpOzdL68cL05Sj9CMwAAADRD4wbkcO2zFqzHpjzU+vOLvNV8ltJs1m867vM/SusSAAAAAAAAAAAAACxH50rDqleiBbGShlJb0sy5+rZO3AAEGPmzj16T5O9mmVlblkG3KxwP1ctF9XO3LEZiJEqptebsPPr0jpw+n0AAAAHJa+Imtg5dJktrU1veMbrMtZBBSsbfnpLs+83PJgAAAAAAAAAAAAAFk0mPjzV3hNaXWVtJ1E7JJ1glAAAHCcameD13cvGlcrdl629Hzx7eGq+jEciRHsS7hz6WTWdcvta56iAAAADWz5UrWDlNVX0ey3JKXcMdbFnT7j6nZ2EAAAAAAAAAAAAAAAAAAAAAAA5dm8/8fq2XhqPU6yJqysybXyV9Dz43eZ620Z1gtZqeRZ9jSdugAAAAAQj81rcKlwyV1Zjck7HL3SZ3egAAAAAAAAAAAAAAAAAAAAAAANJj5ix17b4O4oeIrWq9J83fQ83pYqejN46ZjG8brGvdOeYj7gZ3IAAAAAAtmNIhgTaDLgAAAAAAAAAAAAAAAAAAAAAAAAAGlx888O/SfH1taWVkp88+7hqvXFLYcnlLNvuMtnezR9s65bAAAAAAAAAAAAAAAAAAAAAAAAAAAAAAAAAAAAAfEuNRsdOiefr4s5X6eWndM3tSe1h5nH2Ulz2dwtZ6ez9tyAAAAAAAAAAAAAAAAAAAAAAAAAAAAAAAAAAAADmsc6Xg64OvNtqyCXllRl8biWZCz6QY7ynsAAAAAAAAAAAAAAAAAAAAAAAAAAAAAAAAAAAAAHz9L816u7JrV3qiQzfJOpy9Gk67cyQAAAAAAAAAAAAAAAAAAAAAAAAAAAAAAAAAAAAAAAAY0uE4AAAAAAAAAAAAAAAAAAAAAAAAAAAAAAAAAAAAAAAAAAAAAAAAAAAAAAAAAAAAAAAAAAAAAAAAAAAAAAAAAAAAAAAAAAAAAAAAAAAAAAAAAAAAAAAAAAAAAAAAAAAAAAAAAAAAAAAAAAAAAAAAAAAAAAAAAAAAAAAAAAAAAAAAAAAAAAAAAAAAAAAAAAAAAAAAAAAAAAAAAAAAAAAAAAAAAAAAAAAAAAAAAAAAAAAAAAAAAAAAAAAAAAAAAAAAAAAAAAAAAAAAAAAAAAAAAAAAAAAAAAAAAAAAAAAAAAAAAAAAAAAAAAAAAAAAAAAAAAAAAAAAAAAAAAAAAAAAAAAAAAAAAAAAAAAAAAAAAAAAAAAAAAAAAAAAAAAAAAAAAAAAAAAAAAAAAAAAAAAAAAAAAAAAAAAAAAAAAAAAAAAAAAAAAAAAAAAAAAAAAAAAAAAAAAAAAAAAAAAAAAAAAAAAAAAAAAAAAAAAAAAAAAAAAAAAAAAAAAAAAAAAAAAAAAAAAAAAAAAAAAAAAAAAAAAAAAAAAAAAAAAAAAAAAAAAAAAAAAAAAAAAAAAAAAAAAAAAAAAAAAAAAAAAAAAAAAAAAAAAAAAAAAAAAAAAAAAAAAAAAAAAAAAAAAAAAAAAAAAAAAAAAAAAAAAAAAAAAAAAAAAAAAAAAAAAAAAAAAAAAAAAAAAAAAAAAAAAAAAAAAAAAAAAAAAAAAAAAAAAAAAAAAAAAAAAAAAAAAAAAAAAAAAAAAAAAAAAAAAAAAAAAAAAAAAAAAAAAAAAAAAAAAAAAAAAAAAAAAAAAAAAAAAAAAAAAAAAAAAAAAAAAAAAAAAAAAAAAAAAAAAAAAAAAAAAAAAAAAAAAAAAAAAAAAAAAAAAAAAAAAAAAAAAAAAAAAAAAAAAAAAAAAAAAAAAAAAAAAAAAAAAAAAAAAAAAAAAAAAAAAAAAAAAAAAAAAAAAAAAAAAAAAAAAAAAAAAAAAAAAAAAAAAAAAAAAAAAAAAAAAAAAAAAAAAAAAAAAAAAAAAAAAAAAAAAAAH/xAA0EAABBAIBAwEFBwQCAwAAAAADAQIEBQAGEQcSExQQFSExUBYgIjAyQGAjMzVBJCUXNLD/2gAIAQEAAQUC/wDm9Xto+sGu2ETE28eM2qM9Yx1lNlS/RsfvEZjoe4rJk/xDb+EYoEI11cRyAqZDSUw3CHaEcNrJyteCeR8z+IdRk5rkTAq9RxZZxk1GdJJtm4TDe8QEep9SRPfv8Q6krxAeztRplYEP4iaaNU23eE7rSL/f1T/OfxDqKjjAJGI0bgr6aDzzpJXE2/eCdlrD5U+sNe24/iG2f+58cTnIyLzGEjcmCTiWnY6N3vlfXV+QtuJXyhkaVn7DqA1HGPLkBxLuexgNps2LS7FYy3XmyWMUy3s6Q+lV5Zv16RHFLC/WplI6u3eIczHtI387f/70zF/SL5658HbFwsgafjov/c/gF7rkLYY8xL3QD0XUiDYZ6kXCTwORb6Eme/Qrnvhy57ykrnrJq55rFc5sFxGTeSRykf6LPQCzdhNCWU7HOTgXz1pU79jVPMNfx0q/8pRuTP66Z5ZSZ6wzcdYNY73vE5ZOjFznn60QbSsuY1fr2wNvich2YzcDt5sHtvdjNmjuxl5FfjbCO/EKx2dyJ93cK8808rX7Hl1LYJg6uama/GIJ9/FMaQCnnudV1UkZvu9y4+MEue64me7UTPST24pLkWAtpnnFeie5LiGqjKwrfqexkV9p8cR6pnmVMbKXGzFxs92NsXJg7d6Yy+ImC2gqYPaVwWyDdg7gD8sFad7jxmY1Y5sLDWOrOxqSZ0QKus4rlARhCuuISZ79gpi7DDx96j897Gdiz52eW2dnjt356CyfnuY7s+zrFz7Nw8TXK1M9yV6IfXCAWJtRYZxkaZn1G9/yXGcZxnGcZx7O5UzyuTEkOTGzVxtjxgrTB3CtxuwP4dLjSlECCfIlZDR7Ncr2q2kgtxKWBja6IzGgGzE+Gdy5zjmo78qVEDOBIFP1F9TdAthfUL3/ACX5vOeRcZKVMDOyNblTIWwtjvjX4ioIrDN/Y2WuFgloNpFYt+n7AnFrnz/I4+8qY56iRJz2vh7MREinr5WIawg5A3HvyPdRZGfNPz7rXB2bqnZj1pxkaZn03bB+G7RfzePYuG/t/wC0xpHNyDeyYLh7LEsMBEEdG2c+nWDuDSpGs4sz8+yq49sBpbHTz1toC0D9MvtSh37rrU30p/RHZjmPZn+/YELjvWO9GeEnH3y/oX9SYmcZxjDkFlftk2Hg7eps8ZXnckfZJVY6JtQDICUGUn5hGo8c2qJSnptiHYfTdkqUuahXvGrZpRqJzJaeyOf05PVOdD/5CNJGU0gUZzh9rkcEXlNziMcrXIrVL+lf1JjfucZ24KWaOsPdJY2BmU05UiTxJC244nRtmjGxthHJivamOmR2Y63hMx+x148ftsFuO3EWO24647Z7J+Ou7Z+Pl2BML3EzuCFdb29DG+mb7Ue7rrPi1UN6sXsbJYkD1HjK8LnAkOVrHuVgwE7iteFQED4UlB8skn6XfqTE+XP3O7O7PgucKmRrE8N4dw9U2MKDNX3ab07Ste3uBiki56iK3PeIG464YmOvVTCXxMJdkXHWzsdZ84s/nBy3d0Mvnh/S92qPe1H7ASPSHMzxv59nONI5iilECrZj0Mk1PUlIL0xytck3+uwn6V/UnsVeMQrc8zc8qZ5UzzJnmTPMmeVM70XEe5uarILcyVk+ne6wTFscWyXFnPXFmPXFO5c7lXPn7UwH66hOKr6ZuNAtLZri/IUjmP5c8meTEdndnOc5z7Ee5ik/SvzxfwtkvcVVa5M7nZy7OVznOVzuXEeuMK5MG5VTVXqLYLQnNlz7AALKJJrZsUjWGJnabh3djuGJG1KnJHRO3Oci/EsNO2J9GIcYcl7HFjOPuTR4bqJHhsreo9VZP97wuJba69jTOlzFWX04twZI1uzhvaflENiFxCYj87s7s5zn2F/QvzTJkjj2OX2CTvzwYoVxQrniXGR1VQxceLsbrH+csPjM9mg94m7w/wAl1yrY7FTsGoe6SFRyBja1g15YmVyd0oado/obnIxtvv1fXLY9QpMlhL2dKVyS5GNqXkyNXyK08q5t1FJm7ATCHsEd0ntpdhD9m6VS0my+TGkxr8R+I/EdndnPsIv9P/b39je7vcruMc72CT44jec8KLjY6YwKJiN7clk+GrP/AO5mLzJxM6ep/wATc0cW/PCMLPByEQmMexQyJclFFFF/aygTutpdxaMc7YZoHVW/Al2ZpYI+Asokp37/AGW/sLazOAAhRI8fiQcUNy7FBC0e9Nj5/wCQpOf+RZiZJ3+Q7IrLa+fX01lSGN1OsQvrLENvA3rXolwyf0+eJ5tRt4+EizY+JJ7cZIauIRMRcRcTC/28lF5X5Zz7EyMzFX4jTGpjW8YmEfxkl/Oav/l5K8mxM6fKNsDdCf8Af9udmdmRA98q52qtHG+Dc5yg7lsE1MzkLqLUZr2x0dPEkb7Hc319jNdqBDl1397d7HEoxosu5mrpFq5kyBLqHO4KoaIOMqAjayADtfEEmVlrTRjfbKBDDP3uZKQsiTJfoU+PP1azj+qg118e1xh1w04MGHcSqhlUsfVrBW6QGVhtMvoeGZJhYySMmFd+A5PG3nn2L7GJyo04a1Piz4Yjsa7FLhS4R/Ltbf22Bl5J7Ne2n3HFubkltZcZ25x7OfbV2g62cOzjlA+/ggxNo11MbsGtPyTdUI41XeyaUxt4rgRocwU+N+6kkUUeOOXsM2vrw1cQj/GFfDYQtlovcsiHM8bYdiyQRr28RQxXMnalVSCE0yExXauvpv6fj1DbXatPtuqk0zqS6PMBVyxtJbUY1i7GCRUVccqvRXiYzp5Od7spNjBeuma5V2CzOnlV22OoJ3w9MiHwfT0PY/p/lpph60KwOzEG/EHKTHFMPEsExJ/OLL5xx+c7+VqS+MnzX28Zy1ueRuFJ4W+uTEK52eVUTzd7vE2RgKYpmi1TlHak1uE1hEWn1HvlQK4Ic2KyhAl9Ooqi1790cqADqQlbGeZ2MIuKqvyTDHNjSI762ZICVV9PKztlswdlaAz7Q2rMNaTZ2QdbkTUmR2RSTX8vqBMja5rpZDDxJXfU298a4ciY8aGzp3FKGmYOBrU8+1zrMhKt6YtzTV+O3mwVCbLemx1tevfB0mbMMmv0NPljtdGAJbWMRYi8ttqr18CHpyPyVpasc/T7RrU16yXItDZtQesz1xmqGxNbE3PckXvLUQQsQYmlP8csnv8AU93e2T6QERJnaniZOFw+MXXbhBuPIFHx6LwQJnOMG5p5rry2nAiwmtTQrv3dM/dbzbjrKAMQoYXHGDkyZDBPf4+c3uD+GM5HYnbjmtXCNbxGAOTMg18OvfabLGjZOtpFgqpwupKy3ix6t9be7BJIGriRjycR/K/6rtgmxKxkT1DrMuLCkWDolMMSDrEc1lN5Fmak6ZHXQJjMLoM4mJoctMkVLREjSeHRHo8bPlHE02KxvDvwq93xeT4uLhS4wnJpXKs4XvW1FVxZFx5I0cEU7wDA146IU8FhQnhRxs9So++MaW1yEHtUdBB2uG0kXdKwjfeFdYiuH1Q4QPIR9DvZJtv+56lxyvu/xcoi5yuHj+oYNO1lsNtnUBL2OjymHdwJc9Ap8sKGcju2QLPE1E44Q3z1O1bDLKUsiZYuIZI86SJsqSsubB1sQ8mlYpiTgta6U1yhmqjplqrQfbBIoXbvKVz9rt3Z9q7puN3W5Fhd1tpIoFbPtGQdJhsy6E+tnDs2EYx6CRr/AIHxsSXJxmqW0hQ6BOfl7Mk0U0mwSVU9jLPkK5NCZHoQ2kEjDwJSRhT8r0l8U9oIr4M4NuO2oa2vl7/rzICVzkI5a9MLXomEgM4dAauUdWSUR0BIMXRqgV1efueoKf8AWkMqYw7O9r1xqr7GfFZIvBLV5gv95SG4O5Dy24iEx8zzDs5UJ4EjuKrwsC3jK73tZFoOk73sqzx6mwrvwEbIcGLX6j5cZUwQsk63XykuNdk06NKhcFUskYyoYmOro6ISJHw0YAx0MeicB1sCJHtd9IXDmkyyQDMiP952CNmW1sFBlkSV0gpjaz7Nh1yHssLZdYl61OVuKznI5SxSV+0xjYTTquzZZeevKOCdxqO7dTWII8HYIcm4sIkSKTsLypBSH8Y56LizAglxtirFZcbISzzpmXwbF+56gs511zF7kGjXZ+LHmDHbw5uXjOy9ciY5ExzOcczPD+KDTPyQMceOvkkP1fpHKl5VUsKkj51D1Y1Xb1rUfK1Kr8id2LwuNaRCZtGve6iQpaieScIaOVhGhhod8jVJBGE0ezZj6CfFQQW45iJk1SAay0cuCDImt1fpz6zAhZHF7bWpi3ULb9Lk6vIVuOTO34QKV5wyRyI6eZsWRBktuRVd6+indSBen2n4epkGcx3vBxGDQByStQGZCazMi4SOWI/WJ7q+3gTw2cT9x1TCR+tw5rTxfMbuY3uxjOMUDXZxzmxKnv8ARjTY8T2Y5+FKrGxLKIMJrlo8LJLIzpcnduPtknHGj30wGw2wxMGLnERc8KZxxhxDkhs4D6mef5DvfExuxcOjbs0Kj3eAVG7LBKlpsVaQKOc5G0JnQT+CBkVZtxIhNIyH92VFFNj7PWMqL5Gd5JtQark0nHgYvGWtBFsVAXxZrVS6yn9RID7nZ9pjChXiAYeO6N2YOVJjOBuJR59qoMttjYrdYd/pRaPHLF1X9w9iEaCN6AqMyGrz52tTG/01a9vdYyfUWXmRjhlVc7PM59UN+GpSjWRCPEaiOJmqEkRdi9u2jMbW9NB57NYjXH7O3Ges9T/Va9xO1efhvUHzQwu/GaMiPUOLH5x0VFx0RiZTUppzq+njwV3GUxkUjXzU0WDTgqPv75p8O0rFGqiUz3FqrDwnE/vSylekgMbzmmxlHRzO01ttD/JfDdwBzk4dj8iV0mU6FWjrxdP4QrrZv3W7BSrvUVGq03CyRerRgm9s2WWDXJj1RV7Uxkgoc98E4fajcjZT5rCtQLdK6ciqHfc1Jn/P+OL3ZzxnPOLBEspqZLGC3rxt4dz3McqLirj+M12ZXpJdYRmOsttc9yucV4mmSw6c08iro/vqiOS3rFpL4lSUrfQyHRarYXxUu5KWtRURfIUDG1gIs5BimyPVWLZKic8fOP5ZjuXOZsLPDLsCzXdIZQGG/ddWKo8qs16xdLFyJmdqLjm8LulkmJ+qSBQr34rvhHC6WrK4QnFnCCkCa1bX7upN8Zu/4DnANJXjOExW4icY1eHX4fR3nmcx7T9zABiSHG1hHJL1qaFUB4MTO/jOldhHjyfydusZ0/YYU4rGGhDvYC6laNcLUJLXV8YVW+xtEVthN9LXhTCs4e2QmVHDhlqIZs9wiwbOSdK6V5LP931E1cr1rNphWYfKBGW21ChNIRxHuKo3JI71UTSI+sdx6OSDCpI44zp70+lS5/3NvmSK/XNDkKRqpziARi9q4vwxqLz+nGrm7s8ewkarmeaSxEsHtyLsY2LHuwlwsxhnXaw3NjxHPd3Iw/5NrpNRcy7ipkapcAL+IdyRcJOQ6yZRw412WU71hhYr85xPmK0lBcjZtgmodPHSWgjjih/dna54LaFIo53x7OcEnkcTlhFXPO4eNnn49Sd7YFZOujaV05DRp92dDHYQ4FV9mNv4ejfM/u5zyoioRFxIKetavGbyvffM/Si8Y/5uxRtXGk8eV0B5GllDixemOtRrJPyuplREsNZjzHgwVgN6Ifhx5yd8qe46NyOTtK9ncqr24xncRp4MVIrJ1/Lq45Ilb+9eFhF3amdd619g9gkmr+kN1453TnYYr5OqWkfI+m3E11V0ouj5W9LKaGsaKGEH7/UYXoLEMZoDq7vX8Hd4cKqAGwgjImbifv2Fna5XorFc7F+ORWMlSmxY8V8uxYxTSXnzpoDw6f8AlbDQx9kqx9HbkkvZOnNvr+c+xPn8lR3aqSOcbKilG9sNMoOncu+JS0ELX4v0/qQ+J9l9XtFnVH4sjBYB7zcYGesjGvRcanY6yl+tsFX4vIvDQiLjqk7kNGIJWGd292N/V0plmPT/AJk0alhz6uVVH+KYx/bjiNku9K7urdMtbQlV0Ze7KTTKig+pbhQ/aGkp3zNUsHtXO7F7VzlM/CqbBLZSUH+yp3ovc3GSFYoLIHLZfejnx24g/UHg08iwmalQfZuk/NeNpMJUwivtNerroIdB1+OseogxPq2266zZKjXL1wnryxrTtlCT4r2tGmxXXvmcxO55UcN/PsXhcZGeXA1fGVjQSrGmooVDG/hPUQgS7bVbZIgsj7TWnSRtFXEZdbHIts5yK/iRLVJBXxyY53GRTtjldbK7HEKbNM0mTsRv4Vt2jxtqQ3R5jIdxUS9fm93PsIisTvRc9U5uBmj59XEe0npXZX0sq3LrXSyPDxjGjZ/DOpWpWFzKPq136iq6YbAZltXTIGLGUielIrte0O3uCxekExzqvpZVwXx4wogv4kSshlUEGNF/+Av/AP/EADkRAAEDAgUBBgQEBAcBAAAAAAEAAhEDEAQSICExMAUyQEFQURNgYXEUIoGhFTOwwSNCQ4KR0fDh/9oACAEDAQE/Af6b5BW6gqCphZvlEmECDabRsip+UcV/LWaCSnvc12ydwE5xmJ8wsM8ms7dY55DNlgxLp+UcV/LTwB+y3c4o90JzhnA+qwe1Zyx3dWBO/wAo4xrnU4ahTfG4QEOKqmAEYNQff+xWDj4zysbu39VgmlrvlSAoHsoHkj8gT4Zu6dt8hz4RnKqfIsxzfMFKlSt1ut1vaFGlnKfzY23W6kqVmCkeuR15U2YQnET0YCyhQoPuvzKSpU+swoUKFGo3hBHRIUhZgpUrdbrdQoWVZQsoUKfUx0oUKFChQoRYCssKFCgKAo63K49SHgCovPg4hT8gxaFF58DCB9PHhYUKPB8enzqwOBqY+oadMxG6f2diadJ9dzdmmD/39l+BxWUVPhmOrFoUKLT4CfUJv2bjv4fW+JEg7FHtOpV7OrF9Pknfy3/6Tf4gKeGOE7mUT+39liOzHYzG1zTIa0Hz94Cw/ZtR1HE0Sz/EbEf/AA/UJ1Gqyp8FzTm9lg8IcXiBhycp3/azKFSox1Ro2byn030nZKgg3GmFChQotKnVKlSt1uoUKPThqodoUG9lPwzu9uI95X4/4FXB5H/lyw4ftv8AZV8JVfha+DpbvbUn9Dwf/eyxrn06WJNMnOAzjlVXuo0XYz/V+GFg67qlXD4ggTVaQ7/bwmVMFUw78XiKI70bfp9lUwbcM3FMY4wMv7+67QwJxOMr1XOysaBv+nUhQoUXhQotChQoUesU69Wi7PTcQVhu0cThXOfTdu7md1T7VrDEGvV/NIgjyhDtZv4ulVDMrGbR91iK2E/BvoYc/wCcET+6xVWnUGKLHTORdrziqVWjT71OCR7iP/f8apRvKlSpu1smEQo9ZHUhMrVKTs1NxB8A3vJ3J0QRzpyj29N3W6m8qVPWJ6UWZ3k7m7E7y9OlQohSsy3Klb2418+EKZ3kebtR5CI6MfVcWn0EWhRolblZVBQ3QRbonWeqzvI83bwnc6S4aJU2mw9AylEEWlTcKQi6wQUzYC2yhbqfdT4BnOgOhEz0DaLbKBafGgL7WCc2NxoACgKFl0ygY0BedzHutuq3rSpUqVzwgPHUxtN5UoiDGmSpQBKNmwolBqm7UXKTaCoWykaQiJWVZV8Nyyu9llcshWQrIsolZQF5oi+3laJ0wuFPjhsFKi7uJ1RCJCmw23UyhO+n7IbKVNoUKLb2Bu0aigd05eaJ20SPPTF9iiB6F9NMahoJ0wo0SptC3sPpcuCzhfEWdZlJOkStnLu7Jm/KqN2lDT9lljxY0xY7E6NrGNXnaEG+6ACLQUWxaVKm4C2RPtYLO7yWZyk9HmwuFmMRaRo/KiZ8WNdTvHVEqI1sHmo0Ob5i0KLZSsqg6JW56YbK45C2UHys4Qb7KFkUGx8WDsF9dNTvWm4gKdY3X01EQdAMLMESEctoQMInpFuVNsWzYCSi2YhP2dtaLZ1mCc6VHv4th2jU7k6MqjoM5vAsLPG064JQYnbdUGx2FggE/vaQCeEGRynGfFtMGdPdGnMp6DPPWJ89QjzWyNT2X3XHSai1R5oOhO/MJTUFsiZOnPsiZ8ax07aKh8tPKix1NUKI1PG9oULKsp6433CI9llKy3JgaGhZAVksfGh/vYvA40woPRp6ptU50B6DgjBTsvlaOm0wudLjOmSFu5THHoslTPRZz0KnOsNJWwG3VBhZlKlE6paOEXH0aek0weg/m03G6gBFymfCyFsj9PUQmmRoi3KdubwspX38NHqzTB1EwNIcFmW3mueFx8lNd5Gw+t3GdUIN91McfJgfCzNWYIunUFmn5VlSFtaflCbQotIU/wBBs//EADQRAAEDAgQEBAUDBQEBAAAAAAEAAhESIQMQIDEwQEFREyJQYQQFMmBxFDNCI1KBsME08P/aAAgBAgEBPwH/AFvcqpSMrZUn7RaxzvpEotcNxkEVKkoNP2j8n/fKxmA2QY2mYTA2TITmM8FxDf4pzGfpmktEr5dhNOLsvmTafh3R2+0fkYnHKe6ZK2AHdNHmKdhkfCPf7f8AViyfhmr5Z+4vmf8A5n/j7R+T4uHhYxL3QsTHYSaSm3LSsMGpyc9/6V4O0f8AQsVx/TtXy4w+/ZfMsVn6dwq+0RnJVR7qT3W6A9fpnbkmqkKkKkIsCDQg0KB9gVd1T25Bu+h2ybt9h7IOB3VE/TnSVSVSqVHuoCgKysv8ZN30HZDRZQFCiVSfXWvMEZxw25QoR2Q4MlScrKAiFHqzduMFdSqkShkTGd1BUZ2VlbKVKkr8ot9TbtyEnum4jmo4hOyrPVVFVFSVJ42yidvUm7clEqOU33RHqDduWjkvyiPT28v+Vvso5GPToVUGFUgQdGLijBbJQx2Fwb3Xi4cxVyUKOPuiPTXBb6cfC8ZsLwA3GbBX9Gp/ibpmOMPCbNyn44DmOmxQc0iqbLFxPDZXkXAENKBDrjgypyurKOBCjUR6btbU/BcfiA8bLwa24ki8pmI0YjMR20LCALmTtJTQHO8L+MrEbS17P7UW4oeMNjuiGKXnDJHdYOLRhtaBJPEnOVAPrR75jSWtcIcE/AZiAA9Efh20UNsv058NzZuUxuJ4gc/smNIokd18P/Tc152PHlTHrYtbilocII5SYQM7aBdVH0+nItlQroHjDhTqxFh6jkfR6VCjIkKGoBqHsnXaDmw2jtzr91h6JQ3zOy/wr9lGUegMuJKKkKVKN1CpCpCs1eIgG9U5tJhOkGQg8ndSpHBGk8R+6ZtoKa0zfTCI91QPQR5RdHECbiB22UaDcWRaUGDJ/dO2TRacnuA3UXUEKT2VQUg7HlS2pARw6SoK8yIlU84dlsL9EXF1yiYunALDxJ8rt1KBlFEnogSqiqo3y6QciYUTZOvZA3vniHyyhcSvwvMhV2RlSp90COZhQoRtunElCwuiZ5s2CxXEANV1dQoPRMfW2dMBQiYQOT5lTCebVJo6nPEOya0myDQF+MqQo9sqldUlQEU0wi7sq147JgrxWd14rO68Vq8ULxFWYQc4ldE0o5D3ymEDKGgwUPbI82b2TjLycptK/GWEYfHdDSSUAgMiKlsIRINtG+RuoylSi9eIVWqgvdOGeKemkJqIsm7o7IC6nM5g5SiZVKuEyeuREc036tMyiYhw6aCpGohWlAwhdRGk6ICgKkIuARchBChYkzfMNKGG5DDKaxUhRCBhQCtlEr2UQinGPMsB5PlOUKM9t1VJRPNdf/u2UWylSjssM1MBynK6hR20H3yPmYR1ycU7F/tRJPVB7hsUzGqscgNEJ1Sg7IM75OEiF4TOqGGzoEAAjwJ7qmdkbb5mQvDbVVpKglAUo80dxpicvh/2hqJhTOU5ttbLFd/HOTEZYWJPlKGZVfRVhVA6IUhqknUNBfSVM7FCQt0VMtGglVqRlvzXUJzfMQptGn4f9oaTKidf0q582rDfW2cpUotlUINKDTlI2RCpA4QNSxN8mvIyPZOfS1YV2CdFKpTWwpW/NYg2dkY6KJV9iphYIjDAzlSpUjIaCsY+XOropOyIywXQ6O+uQEXymXvw5vk8SMmiXZE7rEN4WF9A0kwi8my9ubc2qW53mUU7zwNNKhQpU6cTYazAu1C99LtrK+yDO/EdtKDu6m8JzJ2TBSYTsnVFNEADTSojbnP5SsVn8whfPBbJq1SolNF9WJ04GEZYMyqlUOObFAwqwq0T3X5TRLtDiqiqsp5z6fwn4PViMpuGXboCLDRUp4OMLDVEZYH0nQWyqSrhNnKeGRUtspzaI0wFIC3507Ia4CgcHFu3KREaL5fD7HWXQtzfiBESqSFCuUBGqCd0AB6JPEImykxC3RbGQjqjHTLA+nSVJKA40qdcFXU+olYraXfnQS3ogiI3TBDQNFXdSDoP2Q5tQjUwVGNJaoV+i6XU/ZWKyrzNUoxPl2zw2UjVKqUTv9lhPww+/VeC8IYTuqYwN10/a0FX/wBGJ//EAEwQAAEDAgMEBQYLBgQFBAMAAAEAAgMEERIhMRMiQVEFEDJhcRQjQlJygSAwM0BQYpGhscHRJDRDU2OCYHPh8BVUg5KiJTWwwkSy0v/aAAgBAQAGPwL/AON6jLADiPFbzbeC3i9vvVvKDf2liZObLFJUWCwtkMngo42wktc4Ak/4RpsTg0XOpWTmn+4LJt/BX2LrLNpCyY53sr/2/dtplYdw7lGwxtbtJAO1pn/hGAd5TeWaO/IMuDineelyaT2yujIjUTGM47tMhsclWjbTNAflaQhZyPOXF5VKeO1Gv+EYPFyjH1HIeB/JPP1Cuij7f4KtA9dG/JUn+aP8IwRsaXvzNggSx98DssJTDhdkD6KfcH5M2yXRjb5Wky9yrRx2i0Jy5KlcWODRI3Mj/CNP7B+BfCAeYCO6L+CNslCNd8fj9PZarybpyl/4e5xtHO3ehf70HscHNOhHzGI8RHl9q3Jnj3q4qXXXy/2tWF8zbdzEWNmFvZW/OfcoXPke4hw4/T7opo2yxOyLHi4KM3QVRZmpoKg3jPsngvJa5j+ja1vahn/VBzSHNPEfHx/5f5/BN+qH2h/gHZ1Ue+OxK3ts8Cr7R09DwmA3f7hwTY6r9mlOQPolXxtTiJAcOZsvlHHwYVuxVD/ZiK3aGqPi2yy6Pf8A3SNCypY2+1L/AKLSlb73FfL07fCMn81nWjwEQRPlkzG+q236LOpqXf8AUWZld7UhTWsFm4L/AAM0bdUVvWC3Z5B96ynB9pi/gv8AtC3qa/sPBVjFN7TWXH3Kxlwe20tW5PG7wePpsse0PYci1wuCppaClYwlmH2HcSOSviK7SzIK3mBZtIXbsspQsntPvWo+CNlh7OhX7ti9ly/c5fsX7pN/2LzkUjPFqdggkf4NX7nN/wBqjL4tmLjtH4Wq34Y3+LAsoAw82Et/BblVVx+Et/xXm+k3HulgafwstaCcd+KM/mmsqaOKFh/itqQ4fgnB8ckVuLrWPgrbdoPesTHB45g/Sk5+sfg6rVartFdpdtZ2KzatbIPZd7bcFZ8mzP1wQtyeJ3g8ICQiO+mIrOdjf71nWwf96yqWv9m5TTvYcQzLbBfvLF8uD4LIud4BN2MUh53jOa3ej53f2rKgcPaKypomeLwvlKeP33W9Xsb7LSt/pKX+1q36upf7wFvGd3jKVnTY/beSrCjhA9lbboyrdST+o7OJ36JtJ0xTmlmPZkGbH+BQexwc08R9JTe0fjdV2lbFcd687SwP78CyZgfwJzThXNNj2JW6e9DDBdp44r3X7uPtK/dIj4i6ypYR/wBMLdiYPBoWWS16sxf4p0FRE2aF2rHLbQSOqOjr5l2Zj9ru+srsNpOLPpGf2j8wz6rM859VWDjTu9R2iG0GH6zcwrxuDx3fMjWdEC1t51K38Wf/AMoRTHBNpc5XPLuP0hUe2fmNwsTXWWCpYypj5SBXp6l9DL6rs2LaYNvH/NpzdYXlsnc/dcu3sncnq4zHP5ht4HCmrf5noydz/wBV5D0nG6N7eeZA5jmEHscHNOhH0dUt+t8xPXqgY5XN8CrdIUrXn+azdcr9HdJA/wBGoXnopYB6zM2IbRrZB60eR+xeblGL1XZH4/ZVLL2za9uTmHmCt/8AaKFxyk9E+PqlY4XeLTqPo0SSYopwLbSP80GOq7Mf2HubkVlJFJ4Fb7C3v4fAwj7059smmxV8Bt8QUfg5FYdoXs9V2YXn4DSS/wA2ny+5YqGrir2eo7detnPtID6k4uENq3D9aPMK8MrZPA5/Gua9m0YRmwi915V0dI9jMeHZO9Hw5hCKa0VRy4O8Po2en/iWxRn6yIN2uGqyf7jotwYZR/D5+HXitdSXZqTvcFBsuxhF1LhIa0HU81O3DeVpFlhscXJbPsnqLgLgaqzhY96KPxF2PI8Fs58FVF6swurja9Fy84ziZ9i2lO+LpGIenAbPHuWzkdcj+HOM15wGI89QtyQP7ws3t+1Zzxj+5Z1LPcvlr+AWWNy3KaR3vW5RD3lbsMTF8s1ng1b9e/3LztVI/wAXq7XG/O6ZR1brudlHLz7j9GulaLQ1O+PHj1Ag2IzBC2tgJG5SAfj1uj9PSyprP3cNnBSxN3ntkvbuVRYkOAZmE6b+LsgoJLC8rDi9ydLJCM32s3gqkBxs0tyU7y7Axls+o/FZFYo3uYebShH0jTx1rfWeLP8AtX/p9caWT/l6vs+5ymxvNLVRNxmOTNj282uQJnKzlJ961uuyFk1ZNWgC1svlF8oVqeoEZHgoJDq9gd930ZLhF5oPOs/MdYktibo5vNqsDibq08x8C7XEFOLT2tbpz3b+IWc3uUb8GGNgwho5J0cZPymIXVVZwN8FlMxvaiIdYcR1H4Gq1C1C1Wq1Wq16t1yPR0tS9scjDldPiJzY4tWvwNVr8IKj/wAlv4fRryxv7LMcUZ5d3W1p1jOH3HT4q7XEFH4H1erX4mkcPXVUf6jvx6xHDE+aQ+iwXKiimo5Y5JgTG1w7VtU3BFfFYjeHHT9EDuZ6b2vL8CPFX2zLa7rff+H4WTr1JNvVb/vmCg80UdyGBzS5xIxNvknNuSA4gX8epqgHJg/D6H33tZ4lANxT34x6BZQN/vlAWOojY1vNkl1gAnj7zES37UD5THn3p1NK+Kdh4Yswr0taW/Vlbf71uNiqB9R/6pwlopmAgjFguPiz14R8Cx+Fp1QKY/XPXXyxxiRwMYLTxbfNdG2Ba3ZyvDTwUQv/AA//ALrG+5djOnjdNBjy01UrCLa2t7lG/CMTYhn/AGq/PPqjHemjkPoQucQ0DiUWRnymXk3RXa/Yt9Vi3MWfpPK85UO9y/ivPcnf+jSV2IAh8gvhR2fQ0kcns5I44J4x9Vi39q1w55FV8VXUOm2Lm4GydpoI66yEC0UjttH4O/1v8Ueq6ufidOtnsn8FJ49def6jR9yomMGJ/kslhzOajY9mEiMAg+0m77GuBNwXIOklGEahmZKxSudvO0AsNdFM61mtjcL+DUz2R1Uo13wnXqqClHecSu/p6hPdslFQPLZ3yHDtoAcN/evOSsZ4lYYqiOR3IO+gKqmx7CnieY8I7kGRkue7tPKHrd6aLNefyX5BWjgL/FbtIPev3JixtpRFInTmKSV7tXu3WptYytbTTDhE3FccjzTb0EWAHezIuoayndihlbiCppKiIktODGw2c26/Za27ODZm5q4ibMPqOXnKSVv9q3gW+K1+Ceqw+Df4i/JjvwTvHrmEj9mJakMDu/Am2yw0R/Ern1wXIDdo25Piqxsdb5Q54eGRszFzle6sNBkOpuHt4XW8bLfne4ol0zmtGpWUUrak9uS9ybaEcl+yQbaU+lIsfZ45ZKjfUzbeVwJLj46fPjtX4peEY1Unk0Rnle7G+2gvzKvjp7+rjQbVQOivo70T71nxWLtXV7DwXYC7DVN5ZBjla7cLswPcnvYcZOjQsNNGIBz1KLpZHOceaofJxh2LBFIzk8a/br71Kwdq1x4p75qQ0mzOFodq5Zp00zbsHojim101GyqhksGgNsVm2r6NceLTiar9G9PQTfUnGEr92ZUt5wSAq1VST0/txmyyeCij8c4/03J3j1zwGmbUskdjGI2sV5Zs44vNbHZ6i3xEUzhtADmAmzMkaY3cSt6WLwIut+KK/dAERaGMH+jZXbgqJOyxsGTnFXjdjYe3C45FRyO2pe/+E1u83xTJ4HiSJ4uCPncr2jE5rSQOaZEZC6ecl75Heg3iU2ngbhYOPFx5lPeGmQtF8A4obaLzMozilCxwEvopDuu4sPqlHFonMLfAo6D3o7WHEeYcvkpWvPEPyV46iRh5PaE+WCeKdrBc33Su9S5GWmmbZ7Bz4OT2xNdE3gNFUVM4Mh2lm38EGVMbCHWIkZyOikju0QyDtkYsB4KhjaRNRse/aC3ad6KzFkXBxEsdrg5a6WVQx7jga+7b+iFURNaWui9F2eJvNefoIHnmG2P3JzmSTUeWm0uPvQP/ABOnYz0seoRv0o9/+TTOKxF/SNR3Q0wb+JW50d0qfafEFtpoKilh0xSlpz9yuJMuYW7M1dkP8Ct+F7fd8KV39M/CzeFlc+AQc5jmg6XWQWv2LKDaf3lZtaO5C1gUGNklMfBoyCu4W9or0V6K3bEs3rk9lYiMUgNruRbE/wAol9JsegPimzOkxuqHl+Hgzhb7vnckh0Y0uVRW6OqXnCfqBdtalZ5qWnmF4pBY/qpaWbtxnDfn3q8breC+Vevl3oYauTJZvbJ7QTWvfhj/AJbNCscn7PF6zk6OHMD0rZrW5UT3DJrMR8Si2SqbJcFz4H+gPqnn3J21dZkYLXE8lbGRT3u2HgOpodnh0RmdH5qV5LXfcqmsNTtnStsIwLWWyoWCJp9L/VYuk61x4luKy81AJXdwWGli2bOQC+UeEPOSX9pCfpWtY5p1hbJiJ962ksEIJzvM7F9iMMdFHVA8Gxho+1EtphHywuTUWwsjE1wQ4iyl8r836myddeaqgB/VFvvWJsTZh/TeCsqKb7EQaWQX55LeaxntPW/URN8ASt+pefZaAsN5D/cr7HEfrG6yja0DuXILDMHANG7f8Vvb45jUKjdRyPkmId5Q1wyGe6rmMEcxksZYYzwcrOyWzkzYU3G9rcZsLnVW19681EXu5BTS0zKmMPNycJToaicxtcd6ws4rILyKR37PUHd+q/8A1+d1TMf7RNGWRs4m+SpIoZNls2gOFtRxHVUBkGwez5N8mj0za2EnpBvVT1zRn8jJ/wDVAc+rTqEDpRFcXuU10bcbuL5FbHt3j0GIgARR+qzqp6aVodtac04ztvDROlmcC2+F8V97ERYBS09LeQTXJPHRHyenkqMAxOEY0HUSvI4XlsT3ly2lRJe/ApkcJLWtzu1Yp5XuHJfJjxOayY4/crXjZ4uT42VsUeLLEGFf+8MH/Sct7pOKW2m64LRk/syJ0b2Oie02IOoKDXZEff1ve4AtccNjyQsPhBOWdhbvVScMM8kkeBmLMsPrBRNqoGyOcMRHdz7irwvwH+XLr7laV0sR7mBOexsddEBm6EWlZ4tQnpn+UU3dq1YH9k+l6p5p0b917TYpsrSbhNxtOO2dkCcbe9uqDTWFnthFu3ppb+tZG8bIq5zdwQnj39yGoF8iNSe5QdH1MTGY24cYPp/6/OuiX4D5OfN4+GLFp1a9WEuczvYbFADhzVdTBrto1h7Q9IZiyDh4oh0dsuBWrgvNzNvydktoYHG3GM3RY58rQeDsuu4TqeV2APOKN3JyZJM1hqLahuduBVo43ENGvBMjhN5NoDDgyIUrrDE53o8SmSVxxvGexHZHjzRc62Qs0AaBdre71cG7VqiGDePpJrJGBzwNV5mD7lliYF8u+y7WLxajHGRA46vY2xQdGxxB7U0xyv48UHVcz6l3qt3G/qiYm7Kn9AcCE9zXWt9yMQLTs7Nuw3By59Y2NNLJfi1mSyptn3yPAV5aiGPwu5PpKmhLJW6FzsnDmFuNZH96353e5Fha2eM+jIhNTVLRPq+FwyHgeHvREgMcnfoV5m0NR/JJ3XeyfyUwc5toATs59cuHcmy00nkVazMH0T48lJVRRNbUx/vtKNHD+YPzUkbHNw1rNnGZMmRl3pg8wqWrpm2jaBBJ+RQY7irdXZCFt23JebiLwfTdopHNO0nw9rkjI+a3kmGWzdXG/wA6oXerWxH8eosEoLx6HFarVaq18lPH6sjm/ersst6MO8EMccjPBAtqCw/WyTrSRyj3FObsozVcHR8FyVu05EKOlo31E77YQxhvYfohJ03VySH/AJeKQ2HiVXsrIdsx8MtPpfC/gfuQ9cN3fFNaSXHQDUlCbpK+I5inYdPaKwsooWf2XRxUohcf4kO6UZmHymlGrwN5vtD814q7e2t4k+C7H2rKOyc7QDNMldK2aZ3oz5W8AtpUTRNazIOJ4dywdHR4f60mvuCMk0r5XnUkokN9x0VqfycMGjbIGSV0YdpgCxTTyPHLEqJ0xvu2Z7IyHX5PVszHYlb2mHmFsKlt2H5OZvZkH693WHxvMcg9JpWz6XpI6hhyMoC2nRnSGCM+jJvgfZmpuj6uXyiNpttovu8UPJfPHUOjUM07XQVDcjbsTN4tKq6Rkm2piMUd+0wHh7vyVV0JO8TQtOzO0F3MtyKHcmytzYeI59dOJmXg1f3oOZUMjY0fJhtijHA009Ly9J/imN020Tm/n+Xzov8A5U8T/wDyHViwAO59WSBmkwEmw8VmVXt/qkodel1ZrTi7limdsW/erxj+5y2cDXSSO0AFySmz9LvNLHrsW/KHx5LY0VOyBnG2p8T1TVsUTnUNQceNoyY7iCmn0WC6/wCJzNvwpweA9brd58ugOYiPonuXPuXlVM21G82c3+U79FneyDjI3PlqribLwVvKo47+uCjgqKaRrh3hHAGOH1JQv2mmnAHEtuFbjy6tozTiFhwZ/VTdscEbdAdEyp6QxMpdWw6Of48gmRRNDI2CzWt0A+A+lrIhLE77u8K5vNQuPm6j8nd/wGS085gn+5SDpHo/b4v/AMqLtfasdI94jGhd2lKyQRCpa2+OXsEeHNQVNLu4b+bccQ72+BC8oDcHlETJbDgnFul7hNs4gcgULkPFuKtNHYc2ZLFBVDPhK1XELXNvqwrDNG+I8nCypazDdkTtB6XA2UdTA7FE/Q293zkSRuIEcoxgcQcvxsoJHPDTIwFt/STm4vNHVp4HmFqtU1z2X5Ejq6R/zPyVmmz+/iuyeq4QEWGN9sydVZo2ruZ0V5XX7uCp+6OQ/d8CSWY2iY0ucTyUEVFRxUgldhxsbZzweJQjjsI4gGht8wOGXwXxStxxSDC5vMKakeSSw7rvWbwKxLDsi5X2LlnTmx13lvtkjPgvN1eA8jknwSMZVzubu4W5sPO6596fU1I2NNb09X+ATXxw4QcraptPTsc578gyPUqBs3yoY0Ptztn8J8E8bZYXizmOGRVdRxXEUUm5flqExnrG2a2U2E3GJrm8Qh3HTq2jhspGjWMdrxTiMroTObenhc10p9+Q966Ngi7cgc2/IX1UkMDcETGMDR7ldwzW49zferteH+0EBNStPexBpxxOvfMKJmFwhjNxi7Tv0CtobZKgjmYY5LOOF2ubiR85LXAOaciCqvo4wbR1HUENufQObT9hWL/xT3SxbGxyHNa/anecLmE4gw+igqub1pXFG63XKz2q22wnvC3XskV5YyG8+C5BdHOpX4ZzM1g7wcjf4HSLKeMyyuiIDG6lB+uwhv7zkmzYfOgWxdVnGPyW3910byYojmGn0T3dyt1QVzW70J2b/ZP+qzzWWi49XBXOQXm48EX8yTIf6oHKSUem4ZN8AoIzJvl1yCbucrAbrcy1uoTJuigXY8pJJB52/J3Lw+Ira6ODD0ixmMSN9K3A+4IPGY49yxveXu5uKsTk5XVRKeDMlZPacjU1rLDuaM06sGdwYo3cMN81UHW1gh4/A3GFjL9pElweW5ku0CkmkZtoqdmO7tMV8vz+d0XSXZhqh5LN46sK71ks5HN9nJAX0VVNO5hMTSGOaLX5X+Bdrz70A6NhsLbqzY4FYLWZ6qz15BQdI1zzNWgYmR6NiNvvPwemnjTyjCPvPwW1BxOlaLNu7Ie5aqop24hjY6NzJBm08FvGzvzQPWE/y2NmNp3XS5hvuW3dOx7QO0XZBObRDX+M/wDJGSRxe86udqmbBj5HOjIwsFyUZKoFk1S/aYDqG2yv8QQcwVW9Hu7IecF+I1H3J0kDC4DPD+Nl5U1h2F7Y+9bOcFzPWTKiKbBE19nRu1JWLDi4Acyms/5KI4j/AFXa/knxbTzb7XBHJVMnBzysOrSt04vuKzyTS3O2aw7JwcNAvOu3BowaKvhc7DUyBrmtPFov+vzunq4sT4oHWljHI+knU1SDHXU+T2vFiRzXnHiMaYnLVZJlBGdN+X8ggsQzaeXWQyzbalb7sawxj7FRvqPkWzML/C+fwumhxFYVdPp2v843Mt49evUFWRgdmYkeBzRscncEMTGu9ytK50A5tzV6euY/ukbZEmm2rfWhOJWLHNPJ3XV088jI5JcLog/U63t9vxVVJWtbFVRP2eBujQNE2WCTZn8CpBRyNo5nG80Ft0nu5L5Brh6weLIGdzGjkDdNZTgTVno30Z3lNpIHF7GHFJKf4j+akf6RGFvigrhZ7pTiSyQH0dVfZbI82Jw8ocPEKw3zfgpa+SM7OBuFjyNXnX7B+PzwdO9G7lbTjzob6befu/BbKtw08hyOLsOQLZ4w23rBGOlcJp/XHZai95xPcb3KFs+YWR9yzb71dj/cUS37iryYrd/VT9I9IQbGijONrJO1IeGXL4NbUUrsM0bbg+/NdIhxxPdI2Qk946nOaxrXO1cBmVqrdVr9Up9eNjvuV2usQuDgt6L7EMYczv1WUzb9zrFMbI7EzF6uJNbTtb5Tiz2fLvQyxHuTWt1vm74qaqqaXFUSx7MvDiPf4qWjqBcah38xvBwTZYnlp4OBW+CfrMNla1RIfUxWun0xi8kDTZ8QydfvXJANPmmad/euduu7LgjiFZkxeftV5nlkXHgE2ormmGmOYZ6cn6BMihY2OJgs1jRYD55I1hAeWkAnmn0tbCYpWnTh4juQdhdgPG2XWQderdcQuD/cuwAtjTRSVT/ViGQ8ToF5V0gyKorvQGrYv1Pf8KammzilaWOsqno5ry+KWnD43P1Nv9lA4cjoU6N0Qtq2Ruvv6szZdq6FSZHkgYQz0eoc9iz80R8DRYWveT6oKDpBsY+KOwaRYW2h4qTpSpbtNlLhiYezfXF8XUVE5Ec1KMcUvf6vvRtodWldrAeRQc12YzDgU+SaXFI43cSbklYG7sf3nqBCu3NvI6riPFNu4bO+aGyYZHJtLTRl8jv4cf5lUkEzscscTWPdzIHz4FzGuI5hVVNDEJJxZ8TfrD/ZQZH0bODzfuj7SnOlqaWBx9AuJ/ALOi8ob60Lw7/Vec6PqmeMLlhh6PqXd5iLR9pTPKnU9FHxzxv+79UHT7WvcP5zt37AhFTxMhiGjI22HxHQ3S/oxybCTwP+yppWOd5zMtvu35rVYWuxFZ5lOkMBlw54GalB0WLZnQO1WiqbegGs+5Fl9dCrHI8j17J79kziUwQwk/WfxVidofVC3shwaNFRkixkL3/+R+Lloam4a7MObq13ApzHzU0cAOUuInEPBOkEfltIM9tANPEcPgEHJZLkmtcYj7lwz4NTJZI3dHUPrSDff4BbCihEY9J2rneJ+kKiKpfhfJbZDiXKLK8sfmpPEf6K5ZknvDXYn6km6yaU9uzw4DrawKubNPMoXILdbg5EKpn/AJkhcgCgHb3iu0YvvCvEWTj6psV5yF7PcsIldblfqF/sVTC44oIJbRu8cyP98/jZ2NF3OY4Ae5OhrKeSnlHB7bdZ3cys2kJhpOj53RnV7xhafeUHV9U2IepCMR+1A01K0y/zZN530lNTtH7Q3zkJ+sP92UXl8ElLTVgsRKLW5O/3zWtj3K11qtURkb8FIyHJ0vmowTz16hdZOWbb+C3t3xW7IHjxTnTtZn9qOwYbHRMo6Nm3qX8G8PEqGjLhJLcvke3QuPx280O8QmPfRwOew4muMYyK2dbRxztvfSx+0Lc6Lg/uufxQ2FFTw20wRAfS0lPkJ270Tjwd+i/4XXnZ1ER2cbpP/wBD3pxw3ePRvqhJEx8IP8OTUFd6c97w2NouXnQLG3Knj3Yh3c0BzRB4df5BbrMN+KvK73cVS0IfsmTStjc8cATzWxo4RGPSdq53if8ABVYGMw2DQ/LU21QiqQaqEZNdffb+qu6q2f8AmCyOGc1J9SILZ/IUuuxadfHqHrcFc7r/AFgr2xDmFmCFjc3aDkVk11uDeC33YW+qEyY3p6Bjs5fW7m/r/gtj9p5LVty2zW3uORVqfpKR1SNDM3dKNLWR7OS2IWNw4cx1g21Wuaz3lY4m+CzLHH6wW6PsK2dBSyzO420CbP0qRVS67AfJjx5oMY0NaMgBoP8ABsFbRMFQI48Dogd7XVFjOjK0n/JcnTSwxwDDlHLJvO/33oRVNFLCWcSwrdF1hwOxcrIltG+OG3yku6PvQ2tVDC36t3FB87pKxw4O3W/796EUETIYxo1gsP8ACd30sDzzdGCvM08UXsMA/wDgF//EACwQAQACAQMDAwMEAwEBAAAAAAEAESExQVFhcYGRobEQwfBAUNHxIDBg4bD/2gAIAQEAAT8h/wDm9P8A1h7Jq33f/Il8p/WFgC2/pDVo6yyonLFa45H8QdAAOBe3/Ipuj91GhMZnp/JEFsjHpUemN3NJja9BfiypVilBd1d6GnU6swgctQpgP+RJgs+2TI60VrGxMHW1BtyDe0G9nrHMOnla1LlPNtADPFxs2a1HHWPcLre7/kdU/wBBAOLpF0zRLT3+WCjbt7s2WV80fYknJ+OJj+Ln/kaT6r81ia1s+wj0DbpXJKdOBkjAsF9SZzOgZhfVqrSxgjt+loGef+RsKhSBfeZHTvONYsX8EADsIBPMeyy3S3EoPAqYOdjrs/frWw4XDLbUuhra9HMDQ9rsf0Lk5gaTKD+PznngKh0A9hldHkMbb5pm+hwqPaCLeG/38R+0snUZkd9r92v1O0Q4LAovpuOuk0AYLY/73X4NUGGYu5lNVxcFIxtDyi/D3P8Agcz/AA9efsaTP1uvPpuZa8WByvyRAYSXdw4SLdhNM73/AG+m9/BR+TDRz8jWPyzfiPvBA638MZjKMOOvzcKyOh4+YPv6vwT7kv7yxdilrm+sKKrTcrKFbaIONJFN996Kp3NPkQ+Nf7JDWnYf54jVQb/KVGFMF2PWtDWNx8gRyluEMALGzp+9BqnABwkPqBUqXNF3FGOJpy8xkx0rJABNPUOzPnJm9u8nzTntcQ6osXrtNPrmZGkJbUCsh0GMt4eLxAv10f6Zq5Hora9mwLlpKsxciOsW3/HBVqnvBT7ShVtuj3SzfSFPoWL7E2E+tkT0nqnwm5HQg9qMu+OjzFDmWx15UBLvKP3Rjtr80H6KrQO6QO+El7WTRPUlRaa5mtp7x9V7hKOrwyjygm6gxt9I5R4/mSVHRS18xobkBLJc13KSV5jxVhy+4HwEtdSizW6xdv1I6aYP3ZZuicV06YxAXmlkXvvAfebdJt95D4E+Vym/nYPvPxpPEv8Aw10m+r8LMqbovdKq3ld7018fSYbb+UAw/PSZ4TD2P7ln+NmEAZT6zlhqGN4aBnIm4QesTdHGHsM8wt3TZSyO8gPtKRIsIw9YsUmR/X8RywCsb0QCivr/ADQTdz8mZ7R38E9iNfaL+BidR6yzvA6IdZp/p0uSHHc4epFHA4Pg79DzzAgyLdz3OTr+44/hZlzaXND6ax+iy4EqGNIM0YHo1NXeZgFWbRTylw+1PPxNaNF6isf6HZNRwjvHwXWVVyu3sdqgqjcSnIH0H9woH5XAiUlRLIR0YaTaaw+qpUr6DWyuJcQukE6AZj4ZSK2/c/aBirfnGYCwXDiJXmR0T10hgQTY2foGRCVh2A39xOQ4e8D3yHae12P7cixWadnMxSt5i/pWkfpV/wCFSv8AA9rHXE8ypqOhnMEHO16ekzTHTe1z1uDvtOvkiCsPzrpiVrj/AHF2F2nsi+GGh4kCugP/ABZl3TjP1P21sawbKdG8+z7WuNGOmCJ4+ovVHl9GOlCi1hYV1hGrdZYhtL+m0Jx9EuD0PrLxKssaRi3IKcwzniKCx3NXWOOxpRCtexZ8LNZFve1rO2hYnj/aPxIqB4reEzMM20l5vlHSAg0ef4On7aLA8UGn8eZZ0FDhmaXXIu5HRVrdg5/jL+jtgpSRsJiUMLhZ0cC1EcNmxhpFGQHR2iw9pjmVVrBynELS9Qy3EeoPU1EUvefRol1BljEssOGF0ZuoKPRpffDVp6x7tJrfJhj3S9HCaQ86wsOPP74wAzQZRuaOTqZ75In3wGaw4d2/QCN98jTx35pEdS5r4+lDsHowjS3+tGgo53JefF11bfYf23FOMeht+ufMTMtLO3IYDmgctsej8y0lxx7Ecr3hd3VkccZhlut2VaP5xKJjHVuYUBtU0t1i4hjDXYyvM8MEECMnIeY9ECzLtrSLLtPdfQvoXUviDDq+h7PaXbogwt0oMqQ+MA7HMsaTRLTxsQFMah9a3aZjA2YlcryXcyjrR0wfQfRJM6jGo0lDLeYW+mytmivbXDH1kbyH9stG2jVr5C/QiRqN7kFan5xCcSVyTI/TcI23HY7TIjV0XcMMFk0eEFlg2JawTIYBzVRMJWB1j0g03o1/OI8s7T3n0GhBNqEVt+hf30v2+s6CHChxpdsm6PJMi3aB2JL0aLqYFlHhhIe+0STdIlG92bxl8piptFX0SEdT4f7bTxQbTl4/H0ZZS5F/KXobJSV5miW/4p6TbAVjmP0pqMJSx4iqmhCdWoaFpyLOaWnWSJbzkSoysMLFRpBmJyHzJdmameEA+jmC4hIJN0zsQlYJqAlz1o92GDEDQo5WFHnsBTKRtVpc2UYXzdOqi4NW0s00+w/JGlFnoCcurTLthW1IIL8E1Q1OWdPX7P2cqzOmQBmF4PIqQLG/MxccDLWp+0Mo3+MBBAUCyc0J6izk3GMz23wyviXD21PpSKvu2BuNmNQjG5HideX/AOESTfCF4i9CK/oUN/edNiY2ILOotmCvSUNILM6FzSUEqMxpBfQz7RdUT3g4lxILnKbaR5qWHQSidj2iYIzfX/xH22CCrT70Q0MbNq1/lgLMgNFYlRh4JrkoTvg+pX6NybM6Jh+yZ8JKUEo/l8LzG1txTT6xA0EBZU9LzOL3iJgbIWDkL5mimArS7S5aASmvSWrUVpCV5fstBedzHs/XQOxmNajtR9HW+ncTFOrCTnLvtO919BtC3a36CyXLjAwQvoN/T6eDZBJJu1FIsHXF+nvv32aJefcoS2lTBY2WDD0MktkW3SxvQdIbwNhBYqEyxJcpMPyMEGIQWcfOYBaFL0fEEh+ln3hW4AovQTlzNUzgydMuZfT9gYiGloyq2ZWAfFIk3PPTL3Y5CDmG+CGJHa0S2fFmbLwDBHREc13i4SwcG2XWD8Org6zgRmrICjnV6dJntEupyPUbPEVso72DPGN49SUvAHiyHIdvm9GaLJq2YapLoqE6YzeHzf0MjpLnZm84eINMRhfoyRYD6AwpcpM01x0ITzNFizLp96WFiXxpGQS66OlyxrMdPoSxKgEVFAVt9IIYQ1A2wabzAX7xrRguEC2/IkHzCWO5U/mDnxVrBDK15RcaiG9juSvBvL9pnsPxUZIqC0ypPJp+uWiovL8uIDrVsXV8BEL3Oa/WodMda/YGJa2zhcdWHUixOkZG12xmZgojItKOn90yBo3h0ifoDhrVVVcpoYpqTXAge8L0ZJU3Z0o5zxGUiKAaGFUxtgESr8VTOyHgeJZcC+CQazbrz4ajNm5J6tJ7JDDa+Jct2WSuZt9VRNHjNmYJY6ymAa4g05+mdCfil+6voaxT9Wwis8mkVJqERfPOd8zJ2OxPR2lSBKBUbdJSa0d2a/BjB9tYme0ur3MAAA61VHgMav2ImuKDq+h0mTK33Qrh6yvZs3fgT8Nwm3/V0dTXcGkzXCkyX4Lo6w0Gv9QN2XSHK5rsR5M3ZV1NmKdBDZ5B8MUTXp1J1bjNMW+W9HKWfs3cuXCiWsVOvKIh3xs6sLdcSldxaPDxRB0u2Tz0isBoGJF7gCscoE1tFhX3dYisUUmquzpcqK0eotR7x057gdohxqLI1FvELLsxwWygoK4SNe7aWH+x2pFZGEot7QPhEv7OsHoJplI7JBZYZe1jMSFiI2LQyvPab0waZbwzTTyN89eofvB3fTmtY6ph3G3FsZcuBe0t27x018y2EsDKljcdMTqwy610RVe6W9ipoKxyD+YUB6KDucJeBr1WazTwyqV6mM+llh/+5mDcdt7TAGdzwGLPoZ2H1NT+rwFsOwXMGDHCjXq2xYWvEvmF6xC1Hh7n8DqOYPOath2HRKZgh86oJn3pcwPmaI2kW4J9MWPtDoFeCXa5cK9iGDc6jrALTSiLZPMfJCIhi6g90W9nEwz4OEsix6PRg0erCvTPEO1t4SyRrSsFV8abxKdFXVvNRDvItV3jOzqjT6uZfhXqW9VuVobFmW+r2CoUDpA0WxoGKKTqmvSZEZRIOxdPEOyleU8L9JrfX8WsBWSy6YL1QPoclzH9StWgMUUGAXgsdUhG10vTGpa2KnRgrR90FPDH2nqBImpjx8hKih9axaa27wgdCAjRGtjaNFXwFY+UrSAtMfim7uozqHc+J1iDIIMi3Gr/ADKc+Q7JCLntJYzxrsnQqL4G1MTFC5KlZbqXMkx+BKrwvEJ1HSCdOnbTb+zvX6sTAMTkyPvN/nsFUAhQxNJpsxO3Eu4cFqweCFWE00tnO6+SNJsycQA2gN0o3glgiViwV+O8xhttCjzwRTuJxfVi4FtVfdlsM2qUMyXepp6QfBRa+UF63xEqvr1Oo8ZIG0c5nkiWTHMI3WxxWuoPDvBIDyFx6bxqzAsAvSFNp7XMUBeqgDuzhM2o72fEY2DIKmOpGmh8yoU9BZ7woS5gqteMx5BMeCIyrV0imX1xF5wDEudiNcd/iYhAFAaRHdht9a3gmqFnMQzpEyLlSrrFsGqtjEjqqy6HM1U+Gxegr0oN3bqdi0ZzawxfDrLyDmC86qdS4DsdETuLf/EfyIjvBETIyCt12hjVDiWYA6zYRHMGrETiiw70z2wzBuQY7olTCflDvEdm51C87aHz+qw407JfKj5jZ21mE0DLcVUKt394iJlBV5PmArsVi1Bb6RNg6GbkkOaaUjSJLxgENJhEOCJujM2MMvSG9YTPQBtdK9r26zNrTExWjvYuYEc2611ZioMgurO049306OO7ErH1XL1bumkXw1aUtAgdE6eydyogZFRHiGPohpvsL8S1VbYnWPCJUasbYZrh7djTYv342lYlsO9zfK7XANdVtP3TKUeD7jvNtYHVz95QrQFMhEHf1htVzE1ZDUfoRbzpLrSfwCsCs/Fz7TO8LoGesjEXhhiyUHGEtP5hv33Okz1vSmdgzAxZ2N/YSYTta7to9XhjcSFNWSHdXMQKym0nA/pMIXS5uo/jfusGEOxWdKJW6kcvydsM/fSVJVhkg7pSS+x6k5WvWoQNHrre8BhNq5Vv1Jf7aUCu2ZH4vSbPAmf1X4/MPvLzm4ikct9PNRH84o0QR2XAAsmHtP6phS2p4uHumQTOncRUl6FoU1c0uBxaKDXnsw1eHEq7T8EMk2dJqZQhd3YREsMfkDsesrz6ma759RAIcptxy+ZW+IXIeOY5TtTfcvQlMFpo+Ub8IH27D6S37tG/E0Y7TBbRQ0GpXiB13JN6mFDoog8WysxwHVA/R8seMHMF2U5riWFHpVf2HmO+e765rlr38ogGfgQh5mBRSAF7zqJQ5f2WuKbsvg+Pqts2OJzj7aMWZRReJxy2dpRBtiaHaaz/AOxEKGs65Q0epLzMj5vg8krTOtW6bnI6MzSoeH6m3ZnVirLodM/MK7hLgMu98GFEZ1QMPFoxuYpQ+jTkoanebgR6kIcwfT93KLZHeAdDeJ/iBLY6Q2HB+qV979U3Kj2C+8QtHMShbCTLKt1hZyjvafq72EIAitKnkIwDNgzXENaYDqotCb9em+qKqJvACW1dKAJYo9WPdae9hfjB8uo+fpqexwvxLcj1lyRQ/tAC8b2ow97kOlwOOes3TF9qORNDsJyGCUrIkrsRzuaHftxpxAwxveIRUY0rt2gki9LcM8baHabXgFs81Hxs61fhqGVewoPS5avjk1IZgqEKKNMY7wppVym5hsAdesXKILlPmn83aFxwVQNA/wANhK7q9k2TmJApQH9XsfaVfRXaojC3kUXk0jFt1MetMepBilmjt1qWzQ7KTdI0XMuYHEQa62glaPCLCqk9ougFJdW0WgPWBxsUoLpDl337EGUws+8IK4SVWeU8tBEuvwSjwWMSs2UcKiu4n6l6uqMWsoFVwNyiw6wEJa6Gh6HWNyMZ6AjAq19+JzswDZHshoETTAh7Pc1iGIh1HaLI2pcno7QpxjoJnbx2PEJv5E+/+BXDiWAMzGGJyDNPQUlTORGw7HWa6Ms0S+0cFrnTGGAWId91W5LGSuRz6Ud8oayvrjSATxbRln10X3gTwUkNh9QtMYpYsDw1NL0NdsrRPR6UMaMGMrJhU81954hGAUKzF8v8skpUghkMgO0YZOzHAQRLoLaljhNDzVtFjuamKPfWA3NNABrQ+8sWFjY7RP8As8g+qR6XBKpZxrvgXCYjJwanq6wTYDKZbcQNqG1xBQQ3ftNACotGm41eFfzPMMiB/AdJdD9KgWzwj+pC+NFYk2fKjs70PEOqbZ3RNDA0qcwwUF8o6WVgsTrXTpEVcwAm6jtcDxS95jL+lw1ceQzDqJupMELZuoU4i59UyNdSUdpGyaOhF/wEpUl8lG+Li6K1XYfeW/4e1Y68zHjDzFTq0mr6eCGSXa33G3RAFb6MZnU3mHh8fKDQoOGJshZq4JvABbfMt8LxCEqtaY+cZ1v58I6XS88/PLMqMaRXHEy3709ZJX2eznXpOGN83f8AoG9a03WYNHQmug1DEp6zGuIQ1t7hlbayGg1jqXB8y4cNZhsb3n8prGIJyaPc9oVlkt7E6chEVqDFnbzKDjBesFkF1XfXVhm3SNqoderx+rs1l/g5PuTLBRxMgC+spzKjatGITSss1EjSnFXOfaaLcq5+m3UNeZTWxoZEd5ZMFIo6HszEzVt7xm6j8HeCYIUtN3BbnQ43/wAbNHaLa/uS04ZyZiR1l+2A1YJKPZBXMDA9RnauUEikbU9mvvFN6aWTCQfE1w66kXtSY/CL3mia0CPStJQNtpZ8P5mt5/WohWMKDfB0m0JHaQo2cX5P9BtgKR3IX2W5n5UQfjKBlr1KM1CxLt8BgDQakHFjzNmxRWF9n+DWXjwgN848FJgTTWw30di1ZvCsdtD4iCmjTjrLLWYHOUdSOrg8B1iyqzlKlsoS9O/mdyIsArrej9Xdnq3doB0fnpKnqNdvq+8wLMlii3SGnFdIFiXpHF6rBz9nWYbgQxu+9nRgXe5ppTaayXBFuuCVsPTE9YyRUAYCfh/kKGA30iLbDWCYTsbOaic8EscT3xLJeRvSASV+WXMcHtbbLBt2aM90KyZ8DRvvLnImCn2zBXOYoytWzBXvLSF8BCmTehj/AFUbjNXcDk673El2beQ9peZZuqPA9JWiAyyQuElZicn2841WNBShlNfcyiGqh1TMN4h561GWNcNIE70pna52n0lyBAw6feKmFQOjxAEH4hi0d8g/rDpNyTInqRqb9kqMFSL7bt2ZSHcHFXrHMbHuPViHbAlq8zaIe5C0W90wTvhFElObIusnWVZaG+iDdYlGm+h+nfOda6/40pJDqFCni4ghGFrZn1lKxpn3mPYMKswagtmwY2mMNHn6HXQu+H2gHtNDPOsyT7mLgRPqBbsaCCp1DRV2ngpxelpcfFbQLD+YoLTE11h/p0b0MKwE0pjPSNLNplH4h62RwAM56DUh1V8aSoGth4No3fAT2D1h3pT4mczD1t4OVCwupfd6ytZjb7gNVeYd4CSk3SHT8GEt7Lo+X+7tMXVEhwH6w8Si2FMXFewulo2TeDGg1FwmdJ6zebzXaFGoO8Xc9IVL2EA11vSXZmbw3febH5hbL0kiJX6X7LG3X/EMkMKmkrECneqAV5rfR4li+iIXDMFsHc6eKjvSfJAmzoDkPTROa3Y+iqJixleRiiUKcnWakBUd030magYVzf4qcY+8FLkWot3p2j03xSglyllbfb/U4b7tTDyNFc1E7b6QZSn8brKSBzQKZI9m1de1Yts3j5PofOgwnSXnswhKl7CVEy0H7QcN9Pypp712DnaOukyMfm6UX1/XaFNE1IIAsIZLx1SnmL0vWg/IEGUnDO+rQeLjfCbafFnshg3e9L1qXEv/AIoBHALS7gdDC4D/ADVV38Z63Dm7QB+D/RUJlr6c0tz1vpTmpQjTOalXatMXt/cFhL1pWwtnA+BZvhUFDozXjCMPUE8V/wCpVlUZsW8ROXJgZVrHejVmN9LHeXLlta4QpDTR8sUyp6BF9+AAPYP9aEV62FofxKRMlRyBPZirIdUp6/w6zKEFgN4msBGuf/sPBFdIpOCtjK2i2hLhZ1r6jdO77wpuS5fO9+4IKs3QW8eLz1iE/wAOD5oxooeVasdne2l7zJzOvMdBYTbwKXXeG9SJVd2WChY51FjxOhtdrx7Qxql0iq+p1wByuhB7+bgMzKeWDcA3UQHEs0LziaY2canhmHy/29T4aKpprMdbqckXmlwvUbiMobQLlYqO0NQVeHlBH9d74jbB7w0c/wB66eK/chMNUbaR5L8pujzyDVG1OHpCRrqlBOTxEKUYHse8VwEKeRFwblpTc8EsCbEGZuSuGaIm8YRq6MTBcKo47M6SJt4VApt9WUiHdZoc3YDmVbwApDbsUeP9wVFd6W/trvMNRoyizknYfeXS1+HJj7Q1mz0P3ZMnaONHq0f/ACWfM4q0at4aDvMQCKYFcXtDypnuIvcveByGrUlkyMaJrcfImW+p9WEtuq5vzaa2jdix6r4MxYxNG6AzM4ZgibVckD3S3PZXL51n/iqncE0rF/DPSGd2xhcW6O+YCsayOyIjvItXy4IC0oaWL8vdjZgBNGbbzAsCuXvAYCRp42Rk6Erb2xoD4nwwcGoc101fK+g74/4u/rF9pyy+nEX5qAnSxk757SoMhLF0Tcw/Scy2hNEs3iPWaKo66z1hBdSsOuAZSwl7uwXvQHqOh5lVVw138eneGoejoOA/43B9PI5NL117zoPUqPNVL5goI2wBYPcRTKcmHh0TtLtGnC5gsthTPkNz03eJyp+no6D3nWvhPgzGn4Ny8H/J9R8C+IxbPPxJ/wDAX//aAAwDAQACAAMAAAAQkkkkkkkkkkkkkkkkkkkkkkkkkkkkkkkkkkkkkkkkkkkkkkkkkkkkkkkkkkkkkkkkkkkkkkkkkkkkkkkkkkkkkkkkkkkkkkkkkkkkkkkkkkkkkkkkkkkkkkkkkkkkkkkkkkkkkkkkkkkkkkkkkkkkkkkkkkkkkkkkkkkkkkkkkkkkkkkkkkkkkkkkkkkkkkkkkkkkkkkkkkkkkkkkkkkkkkkkkkkkkkkkkkkkkkkkkkkkkkkkkkkkkkkkkkkkkkkkkkkkkkkkkkkkkkkkkkkkkkkkkkkkkkkkkkkkkkkkkkkkkkkkkkkkkkkkkkkkkkkkkkkkkkkkkkkkkkkkkkkkkkkkkkkkkkkkkkkkkkkkkkkkkkkkkkkkkkkkkkkkkkkkkkkkkkkkkkkkkkkkkkkkkkkkkkkkkkkkkkkkkkkkkkkkkkkkkkkkkkkkkkkkkkkkkkkkkkkkkkkkkkkkkkkkkkkkkkkkkkkkkkkkkkkkkkkkkkkkkkkkkkkkkkkkkkkkkkkkkkkkkkkkkkkkkkkkkkkkkkkkkkkkkkkkkkkkkkkkkkkkkkkkkkkkkkkkkkkkkkkkkkkkkkkkkkkkkkkkkkkkkkkkkkkkkkkkkkkkkkkkkkkkkkkkkkkkkkkkkkkkkkkkkkkkkkkkkkkkkkkkkkkkkkkkkkkkkkkkkkkkkkkkkkkkkkkkkkkkkkkkkkkkkkkkkkkkkkkkkkkkkkkkkkkkkkkkkkkkkkkkkkkkkkkkkkkkkkkkkkkkkkkkkkkkkkkkkkkkkkkkkkkkkkkkkkkkkkkkkkkkkkkkkkkkkkkkkkkkkkkkkkkkkkkkkkkkkkkkkkkkkkkkkkkkkkkkkkkkkkkkkkkkkkkkkkkkkkkkkkkkkkkkkkkkkkkkkkkkkkkkkkkkkkkkkkkkkkkkkkkkkkkkkkkkkkkkkkkkkkkkkkkkkkkkkkkkkkkkkkkkkkkkkkkkkkkkkkkkkkkkkkkkkkkkkkkkkkkkkkkkkkkkkkkkkkkkkkkkkkkkkkkkkkkkkkkkkkkkkkkkkkkkkkkkkkkkkkkkkkkkkkkkkkkkkkkkkkkkkkkkkkkkkkkkkkkkkkkkkkkkkkkkkkkkkkkkkkkkkkkkkkkkkkkkkkkkkkkkkkkkkkkkkkkkkkkkkkkkkkkkkkkkkkkkkkkkkkkkkkkkkkkkkkkkkkkkkkkkkkkkkkkkkkkkkkkkkkkkkkkkkkkkkkkkkkkkkkkkkkkkkkkkkkkkkkkkkkkkkkkkkkkkkkkkkkkkkkkkkkkkkkkkkkkkkkkkkkkkkkkkkkkkkkkkkkkkkkkkkkkkkkkkkkkkkkkkkkkkkkkkkkkkkkkkkkkkkkkkkkkkkkkkkkkkkkkkkkkkkkkkkkkkkkkkkkkkkkkkkkkkkkkkkkkkkkkkkkkkkkkkkkkkkkkkkkkkkkkkkkkkkkkkkkkkkkkkkkkkkkkkkkkkkkkkkzyH7kkkkkkkkkkkkkkkkkkkkkkkkkkkkkkkkkkkkkkkkZ3nQkkkkkkkkkkkkkkkkkkkkkkkkkkkkkkkkkkkkkkkkIFYjkkkkkkkkkkkkkkkkkkkkkkkkkkkkkkkkkkkkkkkkaD/AKpJJJJJJJJJJJJJJJJJJJJJJJJJJJJJJJJJJJJJJJLAR1pJJJJJJJJJJJJJJJJJJJJJJJJJJJJJJJJJJJJJJJFyUuZJJJJJJJJJJJJJJJJJJJJJJJJJJJJJII5JJJJJJJPqjzJJJJJJJJJJJJJJJJJJJJJJJJJJJJJJJIypJJJJJJOOUApJJJJJJJJJJJJJJJJJJJJJJJJJJJJJJJG5nMpn6VNF3hHYsXJJJJJJJJJJJJJJJJJJJJJJJJJJJJJC+HoW6e2kzZHa3vS7FrJJJJJJJJJJJJJJJJJJJJJJJJJKdJhCiQTdtNJx6ElyzTrJJJJJJJJJJJJJJJJJJJJJJJJMN51QyKbhIwLvHX337eFpJJJJJJJJJJJJJJJJJJJJJJJNHBpCJ5pW8HW3+e2+/XShJJJJJJJJJJJJJJJJJJJJJJJB4qV9GOf3wbEW2z3236+RLJJJJJJJJJJJJJJJJJJJJJJHBYO+057Wy+e6G3/2++6zr5JJJJJJJJJJJJJJJJJJJJJBAfc4BAHQqCRBF6D/ANv82k1ySSSSSSSSSSSSSSSSSSSSSJELiCepQw3wPQapEP8AFUUltkkkkkkkkkkkkkkkkkkkkkkOBTD6BBOeMmjTF7PmVypPvckkkkkkkkkkkkkkkkkkkkkYrvSaKJ5QRpzNAVeAKhlPqckkkkkkkkkkkkkkkkkkkkkBMicsLSWQw/8AyRQO1moGBRfJJJJJJJJJJJJJJJJJJIcvTAYZTz+kuAGsb15WCVYqzWZJJJJJJJJJJJJJJJJJJUEyUjJ/kK5Ggu8/mB5bIQCv6rmKBJJJJJJJJJJJJJJJIqfW79svTvRhxnIHvFRTz5a3zsN5gpJJJJJJJJJJJJJI1xq8dmgGg8xZ0PIwyIClvQYxYf8AJt7mSSSSSSSSSSSSTFG+KO+jPTjopIGEL44c9Z6HeXRROMqGSSSSSSSSSSSSSNZ7uoepKSozy5zPGHdj7odMlWcEtJgWSSSSSSSSSSSSRudISoZQ1E0bgWVlRQN0v++kWXBVgN9bSSSSSSSSSSSSSiOgVyqJyKQhTQmrZzMju9oaWUENiT7JySSSSSSSSSSSTPP8CM+uY3x5UML2RvHFoycO4kGDoeRpySSSSSSSSSSSTRh9QLPgbSEslX5xaiOhoSQdt0BukTZMKSSSSSSSSSSSQNa1TbRUaScWTtU8dIuQWSSRiXtn8FcR6SSSSSSSSSSSTWI8takMmSNIMmL9ui3ASSSRbXH2Z9cVSSSSSSSSSSSSSKYCEmvLSSTAfS1X6/DwSSSSciXLoDfzySSSSSSSSSSSSI/Kxe/piSS7kBpFPcO+SSSQBuO/MUy9SSSSSSSSSSSSSThrmjH0SSNbYsAiMFJISSSSST8vmwjSSSSSSSSSSSSSSQtThho6SSZ4eWDJtwfaSSSSQVtQSP1iSSSSSSSSSSSSSSRy/O8SSSR4RRa6aa32SSSSRAWR/wAhEkkkkkkkkkkkkkkkkkkkkkkkWd5rm742JkkkkkkyJkMckkkkkkkkkkkkkkkkkkkkkkkk+eqhUEQ51kkkkkkkgskkkkkkkkkkkkkkkkkkkkkkkkkkljUJwXnhskkkkkkkkkkkkkkkkkkkkkkkkkkkkkkkkkkkkfhqI50JEkkkkkkkkkkkkkkkkkkkkkkkkkkkkkkkkkkkkY51gtAYkkkkkkkkkkkkkkkkkkkkkkkkkkkkkkkkkkkkkk6soUxkkkkkkkkkkkkkkkkkkkkkkkkkkkkkkkkkkkkkkkkgNkkkkkkkkkkkkkkkkkkkkkkkkkkkkkkkkkkkkkkkkkkkkkkkkkkkkkkkkkkkkkkkkkkkkkkkkkkkkkkkkkkkkkkkkkkkkkkkkkkkkkkkkkkkkkkkkkkkkkkkkkkkkkkkkkkkkkkkkkkkkkkkkkkkkkkkkkkkkkkkkkkkkkkkkkkkkkkkkkkkkkkkkkkkkkkkkkkkkkkkkkkkkkkkkkkkkkkkkkkkkkkkkkkkkkkkkkkkkkkkkkkkkkkkkkkkkkkkkkkkkkkkkkkkkkkkkkkkkkkkkkkkkkkkkkkkkkkkkkkkkkkkkkkkkkkkkkkkkkkkkkkkkkkkkkkkkkkkkkkkkkkkkkkkkkkkkkkkkkkkkkkkkkkkkkkkkkkkkkkkkkkkkkkkkkkkkkkkkkkkkkkkkkkkkkkkkkkkkkkkkkkkkkkkkkkkkkkkkkkkkkkkkkkkkkkkkkkkkkkkkkkkkkkkkkkkkkkkkkkkkkkkkkkkkkkkkkkkkkkkkkkkkkkkkkkkkkkkkkkkkkkkkkkkkkkkkkkkkkkkkkkkkkkkkkkkkkkkkkkkkkkkkkkkkkkkkkkkkkkkkkkkkkkkkkkkkkkkkkkkkkkkkkkkkkkkkkkkkkkkkkkkkkkkkkkkkkkkkkkkkkkkkkkkkkkkkkkkkkkkkkkkkkkkkkkkkkkkkkkkkkkkkkkkkkkkkkkkkkkkkkkkkkkkkkkkkkkkkkkkkkkkkkkkkkkkkkkkkkkkkkkkkkkkkkkkkkkkkkkkkkkkkkkkkkkkkkkkkkkkkkkkkkkkkkkkkkkkkkkkkkkkkkkkkkkkkkkkkkkkkkkkkkkkkkkkkkkkkkkkkkkkkkkkkkkkkkkkkkkkkkkkkkkkkkkkkkkkkkkkkkkkkkkkkkkkkkkkkkkkkkkkkkkkkkkkkkkkkkkkkkkkkkkkkkkkkkkkkkkkkkkkkkkkkkkkkkkkkkkkkkkkkkkkkkkkkkkkkkkkkkkkkkkkkkkkkkkkkkkkkkkkkkkkkkkkkkkkkkkkkkkkkkkkkkkkkkkk/8QAKxEBAAICAgECBQQDAQEAAAAAAQARITEQQVFhcSAwQFCRYIGhscHR8LDh/9oACAEDAQE/EP8AzemFsG6ldjivyEVsTxr9IhktTQJ+YUERcckNkYYj1/SNLXNJ7P7g3LKf0xWlvXcAQvc6zCxaC4XGiZurJ/mVDy/pF0qiKP8Alm2DZmk/pi/KRHkD+mKmnb/iWte7/wAsJp+kUIK+kFmjZsfPtEAbU/gYFNNkDRmiflJUzdv+IFq6t/LCojX6RdwXUQ8T0J5x+JSYH4hCL9/sbJd/Q1KOp1CwhtTCtCOe5iv0Ajsnqm/oLnUvNTCNosT9BUezyLJ6krPay3iX4S/TPeT3RFdz3Mr/AMwKwcXj4AdxVK8Mry/iX6Z5CNdk67g2n73ub3KmSZflrXXCks1LGWMtcUWL8amyV5CY6WU6/hLHhhdSfzC/UpBv7oalFcUcCPCeqNJUqVKeBEO5XiWIPWU88AuAlk9SVcHpJbxL8P6nslRbzL+ZTyzyf3KeooyMM6Zd/cvBnozfISpUDMqp6JtHwiuoxbTE+IFkgOs3KlZ6Uq6lDqa+agKYrv8An/f+4N4+46Z+HXykuCPaZMSzqeqXf0StNf8Af9UPuAuoZ+fXBB3HKYTJiCyn0Ktk6IN/bliHzb5fhMYMpJbL+ely1Qb+25NQVT1g83mE0osujoweWVkHZM4aQd278ZqNMdliFlOnFv8AEPPw74Z3MXKOolx8J1HwjwZOAj81LI4qHl9uqyZhBrhUxyjT5E9n+GMExQGI+272q6pazKfjRLX7s57aYIcFui0Q/dz6vmEmW6sXlU6yevvHIR8LfOi7KzZioiRNkyIukahTYdKfjEsj1Cxi9Y3+IwSexwl6/MZpm01wcIjnFdxtGEZY4WS5ZLl8lpamUy7mHcIGt/bXiuRrDzoLgeoUf2vPivaCyioDi2sHSvPhgsOIrly2Lmr/ACuyGAW7bK3VZ0/iUpKXqatcp779qgMDAHeSPy/sh0SsuTUZMCz3WteYCYzC8IjFrWm6bGqmRPVF20aCzqr9wBWDO4HHfDjPFy5Qx4GWspNwLIYcASp6JbgU4V5hUaSoa+2DTfA3H0g449ZX8zFeasc14b2e8sgJdGSd3v8AmAWDq66BvVu7u29wFGSDVgKXosoo8HlgmbYQbrHbob9aqC0ArSZpNe3fjuLCymd1rrama9R5JYlkMw4s7m0RLuWPA8uRpZWMQbkoUlJgjXFy5a8sODX219MwwxuDTU3PT4bhiUu6mLUVYt14fJ6MPBDzAqMcx+QQxMxP5XNW0R0EuXcu8zMCq4Tgh9nuZ6lRUWvTLlnmCNyvZKPcuDUEi9cVOr+G5nudHwd8VK4rglQYTJ8jDBkE6myV1Hsl0Tv7R6JZ7gIp1FXghsSWDBFZH1gWo5PEOBqDF8dxONwl1zfNQLlQJQbihHHhM1zqsLg8RDEHHFW2xeu+d4lPk4FVnPAHT9gS4KzG4W3DDMCty5fpH0SskW7xEYqXCOGBeGIzMuEL44G+HVwcxXw8kvsgTUAJ54SapuOcGk/qjPbg3BmJ7SprMoaI3YVWZgYIg4fr15ogK0EJbwjjUtLOZmWmpTbKMxOpbdzwipuMCjcbZM1mZT3SumZhALi2fHqZl1BVlhNvwLlvl+sVXN/HZKlQUKJS3w9xp1Bv6zNjbADGkq8S1VK/R/US4lagds2mMKvct08JmyV5gLmFLxN7ZGjWuCoRaI2UJvZMQdbftNu/xKhKlSvWUzPZLly5dcKlY8DxXDExcEuGZ+0XigVKR9PAWAG9xpZVP1g5O5gllZlDUQiJEsT3lesuWncfNFO5oIAwcJFDFZMuajbBqdyospCWzcU3KtwQRyz3ROBllXmpggpMpQhvcT0xLqesh4oL1PNCu2GJEV1KhmZ7m40C00XBZREcxO+KhhULGJlvjv6zAPEbYjRqVeiVTDfoR5CpVtQKgI24Qae09LEJA9/6mAzNwlGWKuMCGkaxbEWWdwzu5apUQS3TDYPjjFbD4VwLVA7QBXKqr4zeYBgQwFMw4iVhmtSm7lHUEqriaYQsKi4hff1RuW3Hgeo7gWPlxT1MkBOpZzUusTfDPSPKQvAEacTURwQKIlb4SA3KMovEquoKalpc1KVuEKEZYlxFVGpkYLCxOI8TPRLbI5C8Z8TcWtyyXgSn+P8A5Bs9P+/5gpSp/j/v7gAHWP8ATFw8URtxBQvcfH1W/wCP7mskM5gSi7mG4FJDS9YEydSzbBXcUdT0M8VwYxGJYfEPWGVysgGibIjizJKuKHEXLS2Cwk3ADcEi/MdZnoo97FMrArHwGedZi6MpNZiaxLiW5lVDpxKVfGoMexjTnihS9QRrUXA1H6tWZWZUqKmKjMJEuXGYg8tExWfDfninKUgUYmmwyzcq8ESW0EwgeZqSWMxDZPSWwa41t1GtHxDeGPBKVjmI3P3o21qWRWLgDTvMd4jTEWiGcVsYl1M9xUfV2epKzAT0l542zXC+EGNxhVj18FXMwQoacX4lzZMal0PFXKO+dsMRUzL8yyXA6RWGD4/VlLQRFTNJ7QMmD4m4mJ7EJRpiAJMNS01PUS8qBUJbf1bIpr/MtZ1MwKuVHbHBTAjTTFERNxjk+A3Dd5cu52G5QDRmA64u9CEWpczyYBHMO4QUTuvk6lNQW7ZWwbjsYQ5tgFe03S6OLj5iOEKzFj6vMPaWE3DGmLm2GR8Z+AWW8TLcW8Eqtzfw4ReIJN8t9QIqURpl/AUxjm+IqtqDa4tvyc2pRkg0oYj4MWE4gzbKLiGWJcMZmXXHRUbeP1Y4qULbItE1uEpK8DXOdIeUsNRKPxGxj0loB2sYOOaHEGU6hdyxfUR6mJjhflFlR0giJhKOoPbKrBuX0S9ZUeCRYi8T3zcFY+sHxuElf/MwG5jcmLeWOOKlzJKIj3My/hItnG8Q4JkwRyQYe0q5SS06hDki2WMwg8plwTD5dq5ZkT0iYl9cW/Q56gXmGoyt2o6PrRhlk3y8XUJWhfMW/jclWkrN3xU3xUoAhwzfF1HfBEw37x+YqxAMaShLcHHtws7zDQXGb+wDUW5cu5R5ieswwRV+TQMwOJcpq0l+I6xOuMwQalGXwLUtS4UXD1uK2jv5lsv4dOJctM1ElBG/uGTN3sneIvRLgKu8zUGkViTMoqUe5cWZiJpL64cR+cc3c21KO5Yalr9yGpnOoyjj3mpmON8CkJuHS5jdJtQido/Q393GpUQ9JYPKanrLddSszXF8FtTyIgJG/wBFdEbFyS7N1HrY2OiejKzElcIG5eFXcWv0WMHzLuX4jcrvi6gO4U5ibxo1Hw/RwxfEPKXeJZivEKHMeiX6l3+k7lr/AOAv/8QALBEBAAICAQIDCAMBAQEAAAAAAQARITFBEFEgYXFAUIGRobHR8DBgweHxsP/aAAgBAgEBPxD/AOb0FxpxK9oNxMdovZAvR94NvH9RZbKdsx3IfB6CojvNsQXmNzl+D/UTaHb/AGUi3TH3BQePMmNul15yqARN0XdhDh1DNHdj5Rp49J2Utr+o/AJ947TGGWBcH7kZp7f6x+ax+iGk7H3Zvrs/5PqH9RIEENwMFKc2fmUQ4H6pErTp+8uVy/GqBA1R/sMXCvwiaK0eS/6jS0YgOIKaYdx+bHTb5sO8+bBcF+sD396QByz2iI0+w1tuWbJ5EJELiy3oKNH9ALFZ/eNsuyJW/YI6HREEdf0EXImBMX3JURNy3RO+S3c+c9RK/wDiedPV+krtYUMkU4EvyIrXTcOnrmE2THJKXHQr3g9IjxETZ78YXFu+52+cxK6KlMp6XLPCKVlQUEMvJahjcUleIDmLbljsJT4+st5flACxuXq5XveuDLly5Z0qVK6XHW4RY3Aup5ES6GA9oEXMvErs6VuZXmSjlld0+KX2QQ4+s9BL8B8pbzMOB++kQya/fl71sS/DvfS5fXErtAsEaFmRWe34lsKSjmLczzIq76V/Da9BdIg93b8fiJXvHV4B6a6X4XpiDLgNor1iewE9JqWeZ9/Xt6/OKPvDV/JfR63BqXM85mHUYrw3/CPUSq/8fvaV5936p28N/wAwy5d4hZpl9ko2Riv46hOeg1EJZ/5+94le7cGyWsSvM0ngOHdtQMuRZ8ePWXKoTHRmJdS/DcuXLqXGncyaZZziZ6iiV/CeC6bJQbqpR7tsLNkulyiDXUBvSNkDY4BrnH5jYeZr6/7DUqDg7C5hXpdf/T1lJi3PEBAWFc9+i4UuoYLZN6hqX1JcvoIodS/VFeHEZRPDSymW6KJRBO0uo5lGT3aFno1Bx15Lg32riYHkB+uPWY0lX0TD++cByX26qCbZP7QwFpCfHcZfeWfj6+kJBbt6du0C+A4+O5rHS/FvpfeEWcwK01LGy4IIgdLlvWoE1E6NRziHuw48nVVh0wvmMelYiQocaVipQ6DY83Mws936RZ+kKfSNlBGa8hQezf7847nHS+lSpUqVKlTMMQhYuteDz6XcuXN+Bhr3bkv8PT/kq4wtidMzMuXXW0lUSTnpfQKOmehL8CSoaScDHojZgbOvnAKlqN++vENe6LLqGdSprsnlKGSCOZhxB56J1CV18ug9CDl6HR1Lly+lxgbg4fBwiw3DRCXmHeALNnoqH3MCw5PQTRNIYpzAaiSGKGbT6FX83r9DfDj6dKidddEzN4np0C4yur0uWy2ZYECcPg1TSZ11aCy1I7em6HkmVFYW9FG/cBhu8GoUUEStMRxKRVl07UKKlBozfyiG7VGdN+ffsyjfOoRhC7qeZKHXSoxOYdRW+h1UDqdBhOGXfVlMzn9fALElM4B15Lld2ZtDFV4Qsy3M6CO8+3N8QV2wQWhYnSz25lXAEQIzEsV6YmhgtysUQZBp19q+Gpa9QQ2tYnaAEUAHM4T85Tu0eQSEQkHMC+uuu2XiVcdSrlSnoa6sPZgGjx3DdsBiXzHgfrK2yYNriULgn2xokmOwGfP/ANjH6EEQ5C47dTT3Pz3+cKEqRN4mLaoO2BOonRGFK9Q8n/vPoQCACLVnMDk3xLgdscEO8oC4m2IFbVL4Nw0zFHa/WK7krz9ERgY2SzmKcwThlErwHVl1LlrMvSpcs1DpSzOZ9NJYUlyIRW+1qxgj4LfV/wCS1MJZ3HEqkyesICV/jyQszMzModk8iAG4O8sLYyoHwmDWP36faV2frFO71wB7feBPCZZzBh85ypcAahPKdlRti1gmXEUPOX1EdupbmBGybBUp49AnzHiGW4IjaVhYjpCMcyl46BbiohbgiyLpdRQysa7uCtIEPPtervr5S0cj+kqpkAZ7TbXRbccvib+Z9p5OqE7+UUPER1KJ5MazzhPhuZQbdfeNHA/MWsuujucb4lhEqEFEw1GsTQR7EveSC7lCA1FInRii+cqAEIEEHQEpHWEWi8TTJKHUriBMkoYlalhZFXcO+AKitkBpl7P3UrvBHtWCfL7XCqlnRw3c5IAVsP5PlBrJBJiKpmmGa6MLSjZKm+YqSsSnl9p2CByYttzN46DFipuWTG6imyeXMmCYGKw0mNGoLeUqoEVoiOJyJ5ksMwGkWDVcxF0ymm+0vNoIWZPqfmBcm/vGNSwNfv7UYVzv89WUqV2imUDA0Ti7+1LQ+P3S7I0sRZaWl1HcnnuEFOi5Vp3MEt6QIvEMxXmF7QJmECPmNy9zhjLXzTMKubs+59YSDp+j+OgSpRECU3BbBiK6QDulYqX0AZswMNIVELjr5kG+tMDqKbIFVv3iPEezif7IgCU9KuMuKjG5zoemXv8AiantX19fMT/YNbly5cBo5l5mQ9r+7HwFwRLqmLHs6q9/h+Ph9oYtmenx/EG4yyzRFvDEV+eHv5ev3ilkuJDGYnKJ5DDkSuiDKzhTmY8SvfgSFXeWMM7gmDBYkLKq4+U4lpqXMGCAdkOKDcSlERGn2nFzEOyfpDd9Tpc0wLZsev3ZV+Ap8ukAalYfT/TwNBmJmsQld/BVRut5lBz59YzzdBSvhgty3jE9Jc0l2CGR/Aai0XK1wMVMCSo4NV418QiVK3P36udxPEsXTMg7zTEXY9pSymZ25KfUx9SmCDbLAYHoRUHBqWFz0K/70tjF+CBeIM0MqIHOvBrKV5spHHM1qWcjEWBaNRAt6eX/ALj/AJCV0rq7kreUSrRvcb/gMMpgzU0kdyoIsrV5V82O9k+9TCQ+AdohTmJgXtdAduT1NnxPtCoYgiiWYmiUtD+fluBRRK6IMpx00Msy1LeFqcrMTpuZ5YExGus+iRABz08uoWFMoVDIKCiXUu/4flIbiKeZDd7SxRnvHZUzi+c/DiIaSeRhCMqN1N8wGEJSPtaUX6ejx89fKVNOHfk/h4+UF6NymXM/0YPXlhNdbAtj2y20AB4sD0sEYhVjMMC4lQeZRMw4x8paS+8WLJfkh36g31R3/E044hwMuW56DbRLC9PvEXzP7U9Mj1S8SqDeI43G3tl2VytnH79tzLsO3J+YC5G52cQiaDrdSmoBgj0U8LKE9SMCtTM8oXqXGeiwebGX04DE9QAcZg56mDLHs/jIVzMqmWEp3nNkqU/OPSpUU2Rxzczk+2hUE0qZvpUMnVlRPQl+JLgt8kmQFJZgz3lwel6XiamTefjAYyy2hfyBXEDaLO/QmRg7b8LfE5j3CLBly+i4pL/hrveVALXB9IZVErfMIr9sAUVkuYX7rKt8CQxKDbF3ADX8g10EX4blGod8FXf3j5NzIGsvz9ZrLBeWCEYEC8ERoMnXy4rxEEGgyuZuBNv5TDLOhFlnealvEq8vvJOZdnez8fGXUuYZUqKa/SX13ETEauSAoMZJ3f0lLzNKzyd/P17k7uITkuDvDOJstvhqII9sFl/S26nedmfQ+p+IowX6RbhUyu2XNS7ZZ0SyrgSAEX+l1TZG4dTpUp4jOpHvL/pwZuYly5csl1LZV7/+DZ//xAAsEAEAAgICAgICAAUFAQEAAAABABEhMUFRYXGBkaGxEEBQwdEgMGDh8PGw/9oACAEBAAE/EP8A83p5dJwAYPuACZzbFY7pUCHaBRmYWiCxzmC72tVH1GANVsJJopQkF2A55/4iksVMzotxDI8MXLgj47IfyMtNh2XxKC/q5DFSlq4mMJKNU3wtReKgnUEVFKEFWxWpgm5A3QwM4/L/AMRBMitl6lSWhMrB7CLZboC4c05gztENYED+EvFkExCtGnVzhTAahQKB6jv68cR2gTQUS0xst/4iJ0C0CWOH+8X28GByHERaUbLnEOCqK8wewUv7JBDTwu8koTtVrmyDdSqF+v8AxEj1dctRZ3kZS4UpkcQ17id9wHKecSpUWLuy1rOWWX/QaTfATAUvuczOC6K+hB7AJsNqiuv+Im0ChGUz/ZCmcNhAvVF4y/uWIvjLf2hDgbUt0CyJ4y1ku1S35mWFfB+ksFSQVTwB/Xq6yo0VF8XFzVaAtweA4OwQSfC53SJh/kRscpSxZSOIQTwvIL+bjhEOAo/UQ38TAVX5sD8wIEMFLEpbXF/ZGUJxijSAn9fftlQbgCMVUy7ogl9YfYIl4MbrJepasGQ4WCzyzSdiYf8Af+GIfRSwOTMQpO2JgsrjdS4yptBig5iUm/8AgNBABcJnoa7VqsmCGK9jBrw2/tp4WMNWUq4A5F4zEJigFs7lDg4L5nGpaiN1X6+X+5xfYQL6tP8AwxfE9/hbQbLPOBCzgvkD6CB/gC+iLB4iiR1ZJfcbqhUa13S23Ff1pfogsRjuLm7pbaXOJmC5ruXvYeIgEeYFgXYviLYepUFe8Sgysx1WOZRwmr/f8pZvgd+ZNS/Sr9hmYoSqrlq2I0EQXZdcg5xG4DaaV9U/+RvwG5UE3Ks/rSmRiENownhg1jJ0s2SxVWrUFsHmi5v9pVKVonF3XqV0Xbi5WHetMqbjsLKLIZEm72qGX6Ul5ibbJtV/aERWRK7j7jcUS41iu1zppIymmv8AvZLk4qov0Y5BvIiWRMEMhR81Fhpyw3d1CKAMtL9qS63oUFdAq+pevfcP4agppZbYnRbJZXjtZ+2059w/DzLl/wABfwMbiH7fRLqcEXzDVCWVAWxYNTfde4M0YNndWFDvIPiGUjj+8mpiQvuP6omNevzgjfzHN3XDA1B+HUR4GdxO6PKyjFPzLBjeY8aUMVHTeo0Ufld/cOy72zDjfYTIrfyQyKZjku8G4BaMYs+6PzNoJBKno23D4XdezZnMPPQ/yuMGgFtvwzJheQ/bLBBF4AVsHUbi29ZeejQ/3jFKcf2wYkjhuCxooLXTfxD11Whr3mpX22nzbnU7i/Nubp9XOET0gi6xOxz8pErktgn5UtX3wEfpQ3l5qX+EeEOz9nIayC2NeVs93BGQyJu6sW8pO1P/AEwxejdFDkwfO0gHs/qR79D+cVQ17iCMySrr6gd/iOFwGJFWPmOUteIkKf3DeR3CjIrphdrPc2SBz5hy8ODKGrZjQ+mEXjPybYGJHVYfCCmjxCioux3sYKrqmsOmGKImqqtRAeJZkhgr7xf2MBCr/wDG4/8AU+dQpqg6J+kYpRlPtm3vFC94fuAAAoAA6I/wWb/gxP4ch6YTwmw2II6ZkGMN6jZ4jIfcC5JNA8uvE/H9RGNhL794WMSttQo+JeT6gvGIWoqcSqyblQVW5kMtvGY1FSGuVc4iWT0sp7aeZS3FOAx14OEczIfMsNPTLQItu/3weyoQWeXd5TZ+YMqvRa9mz5/1JzGJGVEuJ/FP4IKAAgWB2JyeJeyq21tJpOVXJkwqDBekYaZNwkZ+v6hwGn7ctPcRTUCJQVFTZXMYqrgmWSjxDdKr1MqqAmpgvX94lDRnm4q7+ovL5r+FxzOOohtJb/jKe+2WqmCPGQKPtJemt3+ovYhB02Lodpg+YYSKg9K9L7Jcb4VY9By/EYaFYJPSYlRP4JKqV8Sv4p/B/jrUxx/uMaH4B+YKjEWALkKNF+MxpBKlOXkAeE/pyoHVJtKP0w2jXubUqphRPmOTiV0IGqzQ8xoujfcEqccQKa+pu7w9SqP7EzN6jl76ljqaM8QDbz4mQ+UxDywWvhLownNyrt1kC9kSPcUiu72YYpSz6xJO7v7u1dPiFCTjh7WPpIQiRto/Z8LEeCun+CXEmf4v8U/g/wAF8EthFchdjehEgVrazFxkYP7TwBTGD1i/uaf6bUf9AFoQSvHPmZuwWse2pp5H2RuyfNC/DLlZgpZ8IG3YsqDXmIt/Udd56o6gfmEchGlDqBEaXUe2Jltg5Kp8M5eWJvHUSvh3HdmHcIPHknz6g8GWbF7lgsmwP3N7CGXZpHJMCIrBnVpm9K/NtDAwIWCLoHC+ovqOVPs18Mu5o/8AGD4uV8HP3B5PqNjThOI6jH+D/F/g/wAD09br8t4t1MYjlHw9PsNdpolKCzK7Tp8s9X/Tak7ZbOv3yvCjmI2qINI+kT4liFeAVekwkOgwdwtq5a2vJxcwcuJhLhAs9+l5EgQ2hwBu+cXX1GB03cOL3nV6imyD5IKPNv5lgUETbKp4SHzFtY39ES+o2yiLpGoQsR+YjgYaZOvuYEoirkyTAeGOg8p5andpYLCvmWFm4ILIljD4hcVJqOEaxIn1ErgoxXQskXFu8o8sg9QaQqeyly3qGcwQ+GKh+Yxjmck+zA9kcyLWwq+K5uqh99iGfuW+O7X6Zd3K/wDCiHLUdv8AeXoBcf3yWgroqD8EYo3hZLq1c2j7YjS7nE/EWUbsD+JgBcBRBULQ+7ghAM40+W65HDlv+m5KiqbYfjVkxNWvMBH+hQmxHsiQkDUKwLjSnFu4KXjrqaXsnQWVzKW8X+JeRoVlrB2L+Is0bopbzbq9+UVmsVrnevEMhkkmxaP/AGo9gaTZqfbfx1GaDDYOBxjbXmCVqTho1zazmDKVU5DRLM6+yIvq9I758pSFQuoJuwv8EO6ohBweSIorrzKi9qgHevMGehOqahaJbMxLB2oXmyVs8AJfQt7hZ4/C0P2i0ABE9haHlmJnBOAqJ0s7WfqLNvzv95ePQtCFhWYoJdurSpHq/PRR4VUMRfRqo23cUpa2u7yyg04MssShlcg2J6Y+Vqnlj9/0zbDaV0Wr8I2woBqzZGq7eJeUI8fE99ZOkQH5iODU/Ynzc0xq9R+82KZepjt3LPT1Dq0N99t5uVFtHXGBxWftggC4SwZdXrHiNdgWFovPhs+oi4lE0EuvXMa58C7cjlMwd4Etm9xjRpW/4C9FEZADd4JpFO7lGMnhgpn6Evf2ULep7lr84xRze4aieFgsweSDjwZypqPT+KKhV1dcdSyq2Tuwv8QN2rI3Bmlpdx8hXUyWDHOdd3EqyO+Y5C/LFIFPedywgbmDBx1HW98SzXtSYAgW/wCmCCIljwxugetzfjW4PCYLV/EYhm9pUC0wCtoz8FF7IUbL6IM5tEULxAGGHlL/ADDmzLNwRo28mSH38ssp09krqxl6iu5lXENcx/nSqjA6KAauas8AcSxS98yvpdzBS44IeV82wDHiZjVXsnDV8oxaiOoVKJE5PqOh38Qlu8EExlzFVnMEhiwQ3Q0FlrjM2cKYYd5FNLotjLw4aiLvBbHVaFLsV1caMMFKCPTlFFOxIgRUI2XKz1NLQx6AJToXhYVkXpBieeSnYNwFE01KoYp233Zot5nBcXoUmFKwdVoP6OrPuf3LE7EQLNVCL9XOdXy1d0IoMRD+ArNdMvcloPmOxgxbT1F0AUounGhwnnhjqXdFXotgmZVLOvun9oWLpL62/DIvljSsGU5Hk9kbF6QecNMMtrKeILt9S53piijDLGrxcFRSr31Azmlp8SwxW9Q49sIs7xnBFG3lfLLE/cdYp7goo/O8MCj8+ILCvojFrqWPJ5hwtFFk3yTMAHEtO1OuMNhBOPslP7Jg3DmePIDGjyKg4ULgn+EzlwFpCm4qrRU+j8h9kX5eiQN38/mL8iLUKBjx+aNLbIvlDko/EbcNTAt/qIN7W3v/ACkeczHFiB3mY4rC+gP6IfIqcDtXUZEPIqrd+H/mJLUiyVxlb9y1xL2HzbmWMwpuEVsEzRIfBKoZD7lFVQq8XFkdZdYxo1g1iDh5Ux5VhcUKjb3O0k7NIUSXKpC7p7P4oJVwCZfg+ghV3UVCFszOctia678wjhZm5c78wzCMtDA2pKPxL+CziNivcRjk0dsW7Y77gjCMVpRUDfXMZBu+IAjWTM4K45CX1FYGyIUD44hfFOOZ1S9YiGKt43SlnO3ftiUJ3UXLGOuXmk/vEzrZMpAe0goDq1InOEKU4iidIQZIJefHqFJ+QczVoLat1G6aQAcoba0X8zSq85tj2VEh2q37b+8r9QU1CesDTLreRI72mzXxKyJsLWvTV69Ny8Z45LPmqOCl/cUQEWrA9XPKKXfVrf6A5KxoKpuVC5202d8HB+WYNjm3dtdQ84xYhyV4lYDWkZTElpyTB6Ir6L8BMdpV2pV5pyXsOLO/MxvHqBKBWAOrm0ixBW4zXisbKcw+KgW2rWbltZrcWQQJWRBcAQ4VHickBoDdlgJknvzvBFjTpqZ2PU1fQxRMEIA+TEWaaR/2mEJfmAlGvxLRQVx+Rq9dxVjQWw5i2VWl2ldRry8FdswuEz23MmJdT9ywIjA8Q6LPuXyyFtBbkgDk+eoKLteYaMls5zEX1lL35vzEdyrtfcGc+nliaCItQtO4iUDKLMEeTp5la7DC289SjfPgMTAGkfUxJBZNWegL8RYHm04FFUbF1jG5R7VOSKymLoLlA5thLUQfSR8NviDxoCdr3auWmJNAFrKsD2wSpgKbALO4uLJ0B2tb2tqNBjQgTs6PiUUCmavYIglzY/zygC1RGsPR7z1DEzpZdm7OW+iXYnX8DRcugcef8o+GnxGEBkLYRO4MsMjCKj7RiGIRWniAVmlV+JeiLsvkWC3OcS1kNZQOF6K6iL6OVvyLg+I3iM6nq4IjgwChDyavIHaxbroW3CHtK+ZorgXItAMoprGZehSaC5QigyRoHHmId85KlLi2QPJH6paqO9sQSwlHVryteajorLRD2WIOE2tQeI/lBr7sFRgsrGhA9aEu0pzL/wC0UuUbHUIkcRVZ4iBVp0Siq3cBZdS7sW6igylU3i+Y1ns3JANin5hquY6/aBtvFrBmDYCORITt7TbZITwYKIO+x6qD8ylUKL1hDjX3CM0V3UEgfjZFpLEloeUCP6oaGiqu+au68T7LXyEcJ5joRdJ8KYIqmQbyXUzHMEau7RDdTjg1U4Q1brTD1FLI3Z8dN0WJH4AN4+SyDxnPEK6TmjSJsDYjkRH+bTUbS1VAc2gS8lTGzHoA5QTP/HZyNxeV+MRSuJAwvNy8Qc6A4uG+zCR3IHbPPaxfYYckIFQqt0chC8W1bijXi5iwQiH2idQAb9Bjm03J05Ed8RImlgnHBVZ6gYcgAoFZGuLzC9rqXVIcM2vns5INrZAqzxSgNgU6Mryt+YhADFg0+lPllgcow2iXgZOQkFOXAk4I3VaGSyDROoMMLaUYfNx/gR4bqKJfqQltcWka57JctdQ2gFVrdHExpUcoADyClGLJdusJfyi4eOFVUFDKheMM0f0d5tFz1xEROSwo5zxcbOMDfrDUOM3HTc6J+QubWOBmCroNL5hmjcFQh7GklfiIGl+mA2Wzit9DMQ0zdPsS1ETSuZbAC4uiPbGAWIdnJio06iFO0qbwpcXCiJDLEa1KYs0PKGKibELD6SURgqQg8tW0biGleWpioRdFn5YUFBlZ7/UiKy5FKem1wjBAAUV6l+NT5IqtWwlC2VB+JumC8/5JWCPQEZUPmzXAhm2wq0j9yAlh7TgOxeJlua3wJpNc1ExsFzYI7ZHKnVv80lNgXhS/BHLYyMgidH4SWLVxXNjUqeP2l3S7WWcMI3z6FAPiBepvsl+cA9+Jfwbldu4q0XsUAFQ5vj8wAWJWwXvcQNLdKn3UrJnaZl5G7bggyghRfYxc7QugnJ4hlgUW7x7hsHX4XBV5svmnqEGQmNQA2BKg2KyGt/ZDL3bQx8QrSxVnF+0HK9wwLFK8JaKNlxnwfcSqd9AsjaFFCNGIw7FiwXAYlsNCoR5NfvxFhkuKl5Wt8BANW9NTTbMVHarUMqnlSm1wNVI4tWudsT9kpBgrNYxbW4RZ0tTqiPAh5MT6FP7BGl5gco4uzTWoNiiqdl5jaagWxSWWfDzLFsoCXtVKQPEZ+aLwi0UWC0xcbtbaLRbSyxpLEyMulyRoWJhxcpc+jWr5itHrvHwGIpAq0k/RGPMBH3Zl/E5tfgxAdA29fuOyvA1fHuUCMvWgzIJRArNL0cfATFm8A9zkR5ABoatkw22F1TuORO0lR0kMZOVR4MZHiDHqqHyD/GyJGOhWlcN+IwC5idQ2b71HIKij6Dc07x2k8XLfRrlrdLSILXqVjsVfFVKT9pSZVdOfbzKyRE9Gl4CD8Nc/zeg5TAKHQLPeJQvugqohw3aPDFy86MoRvOjN7dvFGPnxMybhKtW7TIXMA8YqV8pDwpR8/jj2XZZyvFSrXT1HNjqbi3RvFRxtKoDoYtQrTUIgsB0XqDmgtXBwNOPERrCvyzYsTP13cPHZ+v1W5jLm7Q/osq5XXC2LFIzCcOYbi8WQ8R3kKLt3TmqcFuNS72xqlw1xOUulEePMLfcFDgdkF0wvzEIVZa/DP4EBbvUaqihwZfmUN2BJJ5uKCvkPTzTiEtTnBp41MTAXaYX0G4qIz2Pk2VqPFUBmA6xjFhYoaHQ2CLFm0QG6Ez4g5EKUmRHknCyroDZ/idzX4IFQqmQf1G14J3udsUzBQeJABgA8R4Wr5S1m2AopoGeZhMscRnSrsiNs4iApQoVuY/6sI+XojU3awwZZQKt15iA00EA2smTlWRouW1O2ZbxfPY5gE+q8eyxT0xAAuyhWPzT8Q7J18CpybpMcbgKL9Dy0/wDRyF9S4AdnFmkeRKR5GUZ8c4W76HiAdEIODl1HOAUFAlWXRAWSwlQ53cacuAacHOcNQHAb6q0so6cqscTKqQrWRK9iDwImDyS41XQoAaR3/NPRhQLvSuqSXswumg7SW2FG4gNZwu4msPnHDM/ZccMkFTq3b5XK7WKEmhDhdoi8lyj4agbHwkYlqECn9ohvjjhCOco5bfOpSpSGUc4bYIEMBY4bhSUGcZIOuOyA9w5UNSu6FN05dtAW6HcRJAQKyOwsApEe4aRUWjSsVHAeaYkLJWunIU0aW8cyyoUStFLDeX7lCRnbQxVo6bdzWGQDQBRfMUI0y0HJPMKDYMGy+oIJoLgGrrfHZPMsgoyQ8YOe8xOVIlsG93uWo609AcYYCNgX/cIVRP8A78StisDtUZX8jPmCG+z1GSxWdOksRYSm7orD7T1FHpdCp2ZV6RbQFsy0fYC/hAGuCFgkbCpsSOoeKgyQ2Ul2oaPcELYrQ7K4ebj/AGdTj4PwI+QLTNKxeB+4H3EK3aE03scIIkWnU2ifafqYUM5g11iDPTay9jsnK+KmUDAlyl4AYoI9xeKXSI4rlZjqJhNLTp7VkeTnJqXIsliIWF7BalK5g3Tu9pyLast81MahwrFaGl0PyLiujXnkfgyVVFZbfPUWFkblyT6h6sKt1MyxRTgr9TnHwP8AiOs0VeDHVH7ioUR0hdqnfhgCzq6pVZcl1gixAiMRlOhXVRCqVeE8eJNjLYFXZ/MmseA4ywBEMqHuAOFAURbVovGY7QnPKURr/MpTM4GALcEvLD+FislBJWgB+Kmhm0cQMSu6GFmMvlRvdgoDp+4ogWEgd2X6l/17rrM1yVeA5gQCqs6x5julULW/og14qlvcwAAKk4HsOWgeCbY9/KNZ8phwlmxiGGd86bDSYhyF33B++AqHyDCPAd7r2gbS4DzKscKPxxRnsrDSrCp0UbHy3X5gtyypvh+kqKmGaULw4D/IgkecW9XMEphS3wgRJyYX4Imy48sk1ImVu/mPnn21XWMrBs32MIvC6HV3REWuJAagt4ChsmI4XJh2uPBs+Jex1JeFvHgKnfAnzCl7Slw9ypajrhAqiXc5rqgHUCDjdqe2mn1MlJIRbgbaaeu38cSwsEyvwrWDCao3LUsDyuDFmdsoVGn/AJgVvlzMxnGD8PA8May/cTdM8nbxGGsqPBxV+TzDbA/2wVQAHtMg4jWFpmUbsyjn8kVnFtWlHODzgGtQfOmQGJ8i7BjCnMFyVX7KTYkC7q8TYwVq7pHJAMzmgYSdeDKTxluISURx6itWpLaEaODGJayYoMaALVmvMv0Gm/hstnX5WC1ALoEfX81GtobdJH6cJhG1VCRHSQOlNy2hcWUNYazBZ+O7HB5jBWVCF0I8h/cpsULF3KlUfMrKD4ZWyHouKY9Vq781MLJaGQ6JRShGg+Ke+cZllFn1tDFWNMmUi3dZLP7CErWste4VYtfKfH8GAKa+IvXJKGxdkHiRRswUPtl6pDMXKXZZ4CMsq4PszEl0+5Su8ACZPkypyrARaIECBSI4RMI4SE+gW6ax5fk6QbguDPixrtGSugMwfAaqvG/iXKWF6eVdywUYG/VIPcvQdR6MZDK340zemrPuDDh7Gvg2QAYn0xNGe5UdeGcfMEiasoPj/wCQtRTddsG1A97hgLEVphq7j7I8WolKAaAP9BSKtxl0Ob2Bn4UmGhNdXdEYPh8pmwi1U1O14J0BiowTKVQ1yfkRyYyxEAoWOgMB5gzATBKFmu7sK4iNksZ+Y7SDkBdwuLXqosOVNsjSVUKqkhCLY5cLjfwnCD+7jwkTFGkDS+Y/SEJNLt2w8BeSvnERTBtx1q/EXju7Li+QjIR2pel7+JQEqhbLJGb16uoWZr1c5LIjnr+ZdZUQIwTGEs6zHDxciQM1R4d8QB6sZWqL2uu1EcsHNnMvFxmV2cXu6cInHZKV29MsTVNDxphDVttN6eE1mJsQ4FPslqhDmoxraDTKcwc5FNgzZpfUYFiOBv2xSvXjaHxpCcWENc3/AEX+i53gARSc4HEPOZGpKSDW4IrluYO8YuWNrFXCruUxfBFIPPDA10RdqB4eZeKIFAGoW1LLBU+k2PCDAVht4+6XB8jKPTQbxFpp5Ild/cyO0SzWG4ckpH4gKKiCgKQK60x0BpswsgjqPHHT0YKopU7z1EYUJdgurX+00CZBWcCM0vNS+c7oSu7dKfqIEG7+dwDatAZUJTAuAEKPJln/AFJt2eb2I/vhpI+0q58FZaEt4IgHEqQAvQXmaDnGWVkzl3GiS8m6c3HoHAwcj8R7m4UhFCnPDMUDl1iunmOBBWig95I6KWB7vIYqtDo8gTaGiqiPkBT2sJOQXfEsh/NLBONvLx8SoFxYMd21FMFUNIQ1ziXolloFLxo43KkDKmC+inA98w3et0GhwtY5LzT/ADKQCglikRwicTIYzOrViLewQxXDvlns8zSgPW8K3eIAYm1l9RUcAKUCbpAYY8S5otLzovM1AWObQ/ASgosVshoNmtrGO8f/AHjc2/gYX2TLO5C36dRVLQxI8YYlaGGCm/Ufs95ZkbkI9bKQf9FFCMSaDyMwGWqBWoDrVFLtyryHOU/FEVs8A0LavVscW7b3p7mLHFamEFaocngi2JQ1VTZwcecxC0aUOG9EcysrOOSKCPpKWw313wTXNGEMTq3jgepidnbuGBDoDALO81m2wccDuC1q0yq024EHlqIAUBnzPA+96jp2rVMLeGW2jqNcGtjjXQcl67hlyiwqqlZKtFEGx/rcQ4vJyVysMWNU7EWm5QZQ8/huCK0NdUos8EC4opPp/wASj7IOHMNIBx4dR5uF4oZBCoaWatv1UuFHV4ABrqVAU4pDw2t2pv8AcQdUqOMEpQD55gdBF/UrolYSZfAJYkwPeTW9EV0Uio5+BGuiW06JgGW6wXyHg/m3Maz4HPyy71UUWBV4JLPBKHJI9RTKbTZTXDKsYUyIQrxe0LAGMwWb2l6rlLc8rENZrcY0VsDDHAHhJ8w+VJsurtNL5lhczlekEjzQqTS9sEYEoT8n9ib/AMHQqm6xakukh/pA4BdVOC+4yOUxUqtoOLmUB4DcW046LlinjozisWy87hiht5cEDUY6mbpYpAFa3U3/ALKtIlvgkMNeCss4j1qo1cEJacg1CBK1URmsyGNNdnN2CYuojQcBwwWgJX0pdgGDP+/pHV7a7Pbx41HPmx5vUVBW9ER3yu0xptFTYA0iH+tyLD7EKROpT4ci4Vn/AJkSIxFO0xPewhkG5kXipKCrK2bM1UxRnyOs8kogqOxJibwW15uPDdLLt0rnY+COstbiU/IUfq3qCBi1EBCzVjVV3mGS2NHg/oEdNacpGj5JSq4ULsL1pgjqW2x8x7bO7zMVSl8Lmsmu3EqFzhD8NcvLLL2FDHesC9EeH+begiumkBm6xTNF5QUkjSgK4Rqg1hp0wathRJQXy4jGYzFt+YPBaoymp6q9cnkNvKQKgsECRNVrXyHZG8FdafqA5qq8+Y0VACy+b4lP2LRW+2YBoqqn3swGnP1rw523BEEyP+kBx/PhUSmGtys/EVo9OjUR8BtPZFKKDxzFi3LtYGQy4pu5Qw8VjcehUBVLrlglAImMB/eDjIssp7qY0kbWFeSHEDFOCQMPGdwQsGRvGYfiPOttQef+iIFFuzHphWI1wSgpD9Ie6Q5cy5MA2l0Of9lumqvi42BZLYxblhu/bgQgWy7ALcNboUX2QlwrhbullZahL2EUPDQg/N/9RyKzyrtdXAe+xIfx4Nhqji2X20ANKzyCl8r0Ep18hxr8FvxLdlc8vcTXU6TE4UN2ln3LE6cUdqOiLKq4whNum4HHhDShm3B5jy1DLwaEc3uOZSxzB4QVNJv+cz2vWpVTQCJgq2bOCOs8/dfDwcMpoQYyDHpUMzyBtOi6uODzEl6vhtqeZgVWeIdRFlJRa/6ghveCvyQjUaZpCKPbWs+5nylWPpcVvJglhL82yZCjTRACJP8AQggDNrc6I1fExxQFNLeVG5iupVPMxB+DD62JB5a+4lGdtNhLm2JyGsSju9DJaXsxdX9MRAUT1CKxgXZJ/CB2Q5ygIWaVf+ZmUU5IPxAyhV0aNVk69RXYWm3aNZjOEBhmOkZfFwZYXdio4sRamyuY+AuV+nsfRMo7rU0wPEFAXdcv+yHI5AVUhoQBjgmrsrHrQq+9RQ4CagKfuwPH+RggL3eHb+yK0WFESgMBbUPmJCfLobfk9kOQBF3oH+I2ZmoUPij8Hj3FXWFt1FSxtkYpoSM3CUfpcaJSDh8uY0YsIs7sM+uoBw+fksUy5wUz0UgqQAegYP5y44UhkIcgpZNm7oGvAMaT9iRpst9QWgpS81LVle2ALSJ1z8x1ig7D6ZmZQ5jcCZpx9MPikpP8iDLyl1r7aiz8C1HC9D5CXd7QINVgjlWgOb/qZTMSnJXCXY9wZ/6WRFAIWwC8qNTYNouybPcIxoYC1lpXRZzCqhgzysVqw6KKjaHC3TUcTsZcKUfZbzFGnAtlb+4jI/ErghteLipgtEbIBfHiOpj5lDs2sUxkGtiHpdBBMOgAnsXl+NeZZl4da9hpSUPzKzvNung7hBwRaWv9tg4wSxDbeD7HiGwLHYO/D5hcfqS/GjFNOlCoQ9IPxGw6SWWjlVeWWunCflGjwTa0gxgF3KwjDAWti16HmOczqBC/jMs5eSzOUcG7flcCde7QW0twNlpBDokBQQygohbf578easVTEyjtEg6NwUXV42XOCApjz+QS+yWsbV57F6wVvCHkOIHyZQrXYPAYwmmIUDerA/LCy0UZcvLdLwjMV34DB4Ex4cgIUM3WCA/2Ec6h8kofFK+IvGfLVQeAgGMfcYpLRYAeYUmtaoBQO/T7iEJathh5vIVWcJdZz1GAAWovIOcNl87jDNeySh8Mm2a1CeI7ona9xCQYDV97+IqQJ7iEFpQHMztmgXTgvliHDI4A4Ao7m+642+g3ozC6arw/h5fLLucolKKPn4Ff7eKwb2RFpp2sIp5jzU3IGLiKchTzE9tbWZa5atrmntMWjfEAXRVxyFqoIhFxsxcXOysRRYcszP8AqGYHRFVcz3CB30Atwx0CxvtaiKwUmbDSJg1PtncrdGAugDH9QI1BVRxBwUDwOyXT35l0QP8A+i4zDIh1ISUDwPG2DwVLYVVoGH/CXWooAQV2FENYgpM5og5dABlWNQAYhuFw0HJGWtM9vNn4iCYSZc/PcKUjGlz54mwl36qy7+oACZT7Gp/cb3jTMzRYWGx1TqW6wawQKIkUcHb/AIl54CcqkeRDz4v93UglMADOMrCgo3obwiV5DEYpp7J0HxfiWDGFIsCKdzWUfgBXa7a/DLRQLBHYRPQYCuQSHcZCp44/1I/XkYKDlaAZLwZ8Ryvvh29WbVDTU6pQT3F/6rzALB2L1HxQxSyjyfK4tM5CxCkfiCs1Adp3otwYLAiFYpCpUDWqKqLdvZh9zxZb+IRI6IsDsxjM53xUXCFYHO4X1gRy+JZDmuJ8fud0nSHIY5iaI7vauyHLKAa0oWi6P90QFaAJ9zF4Vh6DrDnZE2S6cliMPmshRsYSqnQfqKnF2GjVIP8AVrWSn4JF26V3YRpRFykCsklaUUaFOQvNKBUosK2aq3VwurgpUK1NiqZggtVNge5Yw8zlCXFfmUSxE7lgdufBREaCmzRfMMe1AyUdk54lPOOYXdZosQ7OCzbT56hUdVa48ug9wXGRrSrCYrRq6vEHV39ody7xovAGP+FWjib10PZ7KPNypUIJwtIuDAcsE4+T31pH3cSuKpH1HsYoaiooa491om+lJeMq0+SOzqAaqa801cMeDgy/URPx66iSgKuadP8A1DTXq8wCjJ4l6WbdtH2x/wBhUol1aKezsWCgDj/hT/KgdW3foiqrFLsUjiEpNVuXz9qdoVgE5AgPIHCIiCTZTReSKrzxiEwgqOK3iGxpYmA+IDsVj/uIGjQ5ofkMKgtT+QHMqKB3VDwCZllIBsTS9D5QSp3hV5WeFHWNxDmBo+PJKAYAMAf8Nbi0oyqKAu4NKwN4CSKXflfC83U5NaOStNf3KRSUIsibp9hJ5iAjSyqVJZJNFk8FZjGbGryjGvN2EOYmvUULhKv/AKMMu7b3xhR2MLAFelIA/wCJIIiWPDGS3tI+VRWz3a1+j/8AAX//2Q==;fontSize=16;" parent="1" vertex="1">
          <mxGeometry x="660.93" y="510" width="170.13" height="194.43" as="geometry" />
        </mxCell>
        <mxCell id="MAos26doQvQkLZr82pBG-16" value="Gateway" style="image;sketch=0;aspect=fixed;html=1;points=[];align=center;fontSize=12;image=img/lib/mscae/Application_Gateway.svg;" parent="1" vertex="1">
          <mxGeometry x="720.99" y="375" width="50" height="50" as="geometry" />
        </mxCell>
        <mxCell id="MAos26doQvQkLZr82pBG-17" value="Redis Interface" style="image;sketch=0;aspect=fixed;html=1;points=[];align=center;fontSize=12;image=img/lib/mscae/Container_Instances.svg;" parent="1" vertex="1">
          <mxGeometry x="650" y="160" width="50" height="50" as="geometry" />
        </mxCell>
        <mxCell id="MAos26doQvQkLZr82pBG-18" value="Orchestrator" style="image;sketch=0;aspect=fixed;html=1;points=[];align=center;fontSize=12;image=img/lib/mscae/Container_Instances.svg;" parent="1" vertex="1">
          <mxGeometry x="790" y="160" width="50" height="50" as="geometry" />
        </mxCell>
        <mxCell id="MAos26doQvQkLZr82pBG-19" value="Task Planner" style="image;sketch=0;aspect=fixed;html=1;points=[];align=center;fontSize=12;image=img/lib/mscae/Container_Instances.svg;" parent="1" vertex="1">
          <mxGeometry x="650" y="290" width="50" height="50" as="geometry" />
        </mxCell>
        <mxCell id="MAos26doQvQkLZr82pBG-20" value="Rresource Planner" style="image;sketch=0;aspect=fixed;html=1;points=[];align=center;fontSize=12;image=img/lib/mscae/Container_Instances.svg;" parent="1" vertex="1">
          <mxGeometry x="790" y="290" width="50" height="50" as="geometry" />
        </mxCell>
        <mxCell id="MAos26doQvQkLZr82pBG-22" value="" style="endArrow=classic;startArrow=classic;html=1;rounded=0;exitX=0.5;exitY=0;exitDx=0;exitDy=0;entryX=0.5;entryY=1;entryDx=0;entryDy=0;" parent="1" source="MAos26doQvQkLZr82pBG-14" target="MAos26doQvQkLZr82pBG-10" edge="1">
          <mxGeometry width="50" height="50" relative="1" as="geometry">
            <mxPoint x="740" y="510" as="sourcePoint" />
            <mxPoint x="790" y="460" as="targetPoint" />
          </mxGeometry>
        </mxCell>
        <mxCell id="MAos26doQvQkLZr82pBG-23" value="" style="endArrow=classic;startArrow=classic;html=1;rounded=0;entryX=-0.01;entryY=1;entryDx=0;entryDy=0;entryPerimeter=0;exitX=1.04;exitY=0.48;exitDx=0;exitDy=0;exitPerimeter=0;" parent="1" source="MAos26doQvQkLZr82pBG-16" target="MAos26doQvQkLZr82pBG-9" edge="1">
          <mxGeometry width="50" height="50" relative="1" as="geometry">
            <mxPoint x="910" y="430" as="sourcePoint" />
            <mxPoint x="826" y="375" as="targetPoint" />
          </mxGeometry>
        </mxCell>
        <mxCell id="MAos26doQvQkLZr82pBG-24" value="" style="endArrow=classic;html=1;rounded=0;exitX=-0.035;exitY=0.021;exitDx=0;exitDy=0;exitPerimeter=0;" parent="1" source="MAos26doQvQkLZr82pBG-14" target="MAos26doQvQkLZr82pBG-3" edge="1">
          <mxGeometry width="50" height="50" relative="1" as="geometry">
            <mxPoint x="610" y="520" as="sourcePoint" />
            <mxPoint x="660" y="470" as="targetPoint" />
          </mxGeometry>
        </mxCell>
        <mxCell id="V389OUNsxJCa_eCUQnI1-1" value="" style="endArrow=classic;html=1;rounded=0;exitX=1;exitY=0.32;exitDx=0;exitDy=0;exitPerimeter=0;entryX=0.03;entryY=0.007;entryDx=0;entryDy=0;entryPerimeter=0;" edge="1" parent="1" source="MAos26doQvQkLZr82pBG-18" target="MAos26doQvQkLZr82pBG-9">
          <mxGeometry width="50" height="50" relative="1" as="geometry">
            <mxPoint x="890" y="160" as="sourcePoint" />
            <mxPoint x="940" y="110" as="targetPoint" />
          </mxGeometry>
        </mxCell>
        <mxCell id="V389OUNsxJCa_eCUQnI1-2" value="" style="endArrow=classic;startArrow=classic;html=1;rounded=0;entryX=0.48;entryY=-0.06;entryDx=0;entryDy=0;entryPerimeter=0;" edge="1" parent="1" source="MAos26doQvQkLZr82pBG-17" target="MAos26doQvQkLZr82pBG-16">
          <mxGeometry width="50" height="50" relative="1" as="geometry">
            <mxPoint x="751.29" y="300" as="sourcePoint" />
            <mxPoint x="740.6929411764706" y="375" as="targetPoint" />
          </mxGeometry>
        </mxCell>
        <mxCell id="V389OUNsxJCa_eCUQnI1-3" value="" style="endArrow=classic;startArrow=classic;html=1;rounded=0;entryX=0.5;entryY=-0.1;entryDx=0;entryDy=0;entryPerimeter=0;exitX=-0.06;exitY=0.94;exitDx=0;exitDy=0;exitPerimeter=0;" edge="1" parent="1" source="MAos26doQvQkLZr82pBG-18" target="MAos26doQvQkLZr82pBG-16">
          <mxGeometry width="50" height="50" relative="1" as="geometry">
            <mxPoint x="694" y="220" as="sourcePoint" />
            <mxPoint x="755" y="382" as="targetPoint" />
          </mxGeometry>
        </mxCell>
        <mxCell id="V389OUNsxJCa_eCUQnI1-4" value="" style="endArrow=classic;startArrow=classic;html=1;rounded=0;entryX=0.5;entryY=-0.1;entryDx=0;entryDy=0;entryPerimeter=0;" edge="1" parent="1">
          <mxGeometry width="50" height="50" relative="1" as="geometry">
            <mxPoint x="790" y="340" as="sourcePoint" />
            <mxPoint x="756" y="380" as="targetPoint" />
            <Array as="points">
              <mxPoint x="760" y="340" />
            </Array>
          </mxGeometry>
        </mxCell>
        <mxCell id="V389OUNsxJCa_eCUQnI1-5" value="" style="endArrow=classic;startArrow=classic;html=1;rounded=0;exitX=0.94;exitY=1.04;exitDx=0;exitDy=0;exitPerimeter=0;" edge="1" parent="1" source="MAos26doQvQkLZr82pBG-19" target="MAos26doQvQkLZr82pBG-16">
          <mxGeometry width="50" height="50" relative="1" as="geometry">
            <mxPoint x="700" y="380" as="sourcePoint" />
            <mxPoint x="666" y="420" as="targetPoint" />
            <Array as="points">
              <mxPoint x="730" y="350" />
            </Array>
          </mxGeometry>
        </mxCell>
      </root>
    </mxGraphModel>
  </diagram>
</mxfile>
